<svg width="50" height="50" viewBox="0 0 50 50" fill="none" xmlns="http://www.w3.org/2000/svg">
<path d="M10.3852 0C7.5322 0 5.42177 2.49801 5.51598 5.20711C5.60661 7.80927 5.48895 11.1802 4.64024 13.9287C3.78955 16.6859 2.35053 18.4282 0 18.6524V21.1914C2.35053 21.4152 3.78955 23.1579 4.64024 25.9151C5.48895 28.6635 5.60622 32.0345 5.51598 34.6367C5.42137 37.3458 7.5322 39.8434 10.3852 39.8434H39.6188C42.4718 39.8434 44.5822 37.3454 44.488 34.6367C44.3974 32.0345 44.515 28.6635 45.3633 25.9151C46.214 23.1583 47.6495 21.4156 50 21.1914V18.6524C47.6495 18.4286 46.2144 16.6859 45.3633 13.9287C44.515 11.1802 44.3974 7.80927 44.488 5.20711C44.5822 2.49801 42.4718 0 39.6184 0H10.3852ZM33.4866 24.5214C33.4866 28.2517 30.7032 30.5132 26.0844 30.5132H17.5688C17.517 30.5132 17.4674 30.4926 17.4308 30.456C17.3942 30.4194 17.3736 30.3698 17.3736 30.318V9.51741C17.3735 9.49175 17.3785 9.46632 17.3883 9.4426C17.3981 9.41887 17.4125 9.39731 17.4306 9.37914C17.4487 9.36097 17.4703 9.34656 17.494 9.33673C17.5177 9.32689 17.5431 9.32183 17.5688 9.32183H26.0395C29.8911 9.32183 32.4185 11.4072 32.4185 14.6088C32.4185 16.856 30.7183 18.8675 28.5518 19.2201V19.3377C31.5006 19.6609 33.4866 21.7022 33.4866 24.5214ZM25.227 12.0095H20.7438V18.3388H24.5202C27.4388 18.3388 29.0483 17.1641 29.0483 15.064C29.0483 13.0963 27.6646 12.0095 25.227 12.0095ZM20.7438 20.8503V27.826H25.3927C28.4318 27.826 30.0417 26.6072 30.0417 24.3159C30.0417 22.025 28.3869 20.8503 25.1972 20.8503H20.7438Z" fill="#7952B3"/>
<path d="M4.0896 47.4555V40.4043H6.09588C6.70541 40.4043 7.18893 40.5535 7.54643 40.8519C7.90367 41.15 8.08229 41.5384 8.08229 42.017C8.08229 42.4172 7.97416 42.7648 7.75791 43.0597C7.54139 43.3547 7.24299 43.5644 6.8627 43.689V43.7089C7.33813 43.7645 7.71842 43.9447 8.00358 44.2495C8.28873 44.5511 8.43131 44.9445 8.43131 45.4297C8.43131 46.0329 8.21506 46.5213 7.78256 46.895C7.34979 47.2686 6.80386 47.4555 6.14478 47.4555H4.0896ZM4.91565 41.1516V43.4282H5.76157C6.21394 43.4282 6.56959 43.3201 6.82851 43.1038C7.08743 42.8839 7.21689 42.5757 7.21689 42.1792C7.21689 41.4941 6.7661 41.1516 5.86452 41.1516H4.91565ZM4.91565 44.1708V46.7081H6.03665C6.52189 46.7081 6.89728 46.5934 7.16282 46.3639C7.43155 46.1344 7.56591 45.8197 7.56591 45.4198C7.56591 44.5871 6.99878 44.1708 5.86452 44.1708H4.91565ZM11.8587 47.5747C11.1146 47.5747 10.5196 47.3403 10.0739 46.8715C9.63129 46.3995 9.41 45.775 9.41 44.998C9.41 44.1524 9.64109 43.4918 10.1033 43.0164C10.5655 42.5412 11.19 42.3036 11.9768 42.3036C12.7273 42.3036 13.3124 42.5347 13.7322 42.9969C14.1549 43.4591 14.3663 44.0999 14.3663 44.9193C14.3663 45.7226 14.1385 46.3668 13.6829 46.852C13.2306 47.3338 12.6225 47.5747 11.8587 47.5747V47.5747ZM11.9176 42.9822C11.3997 42.9822 10.99 43.1592 10.6884 43.5133C10.3868 43.8639 10.236 44.349 10.236 44.9686C10.236 45.5654 10.3884 46.0358 10.6932 46.3798C10.998 46.7243 11.4061 46.8966 11.9176 46.8966C12.4388 46.8966 12.8389 46.7276 13.1177 46.3897C13.3994 46.0521 13.5402 45.5719 13.5402 44.9491C13.5402 44.3197 13.3994 43.8345 13.1177 43.4934C12.8389 43.1526 12.4388 42.9822 11.9176 42.9822V42.9822ZM17.7595 47.5747C17.0153 47.5747 16.4204 47.3403 15.9746 46.8715C15.5321 46.3995 15.3108 45.775 15.3108 44.998C15.3108 44.1524 15.5419 43.4918 16.0041 43.0164C16.4662 42.5412 17.0907 42.3036 17.8776 42.3036C18.6281 42.3036 19.2132 42.5347 19.633 42.9969C20.056 43.4591 20.2675 44.0999 20.2675 44.9193C20.2675 45.7226 20.0395 46.3668 19.5837 46.852C19.1313 47.3338 18.5233 47.5747 17.7595 47.5747V47.5747ZM17.8183 42.9822C17.3005 42.9822 16.8908 43.1592 16.5892 43.5133C16.2876 43.8639 16.1368 44.349 16.1368 44.9686C16.1368 45.5654 16.2892 46.0358 16.594 46.3798C16.8987 46.7243 17.3069 46.8966 17.8183 46.8966C18.3396 46.8966 18.7397 46.7276 19.0184 46.3897C19.3002 46.0521 19.441 45.5719 19.441 44.9491C19.441 44.3197 19.3002 43.8345 19.0184 43.4934C18.7397 43.1526 18.3396 42.9822 17.8183 42.9822V42.9822ZM23.8912 47.4078C23.7012 47.5127 23.4504 47.5652 23.1387 47.5652C22.257 47.5652 21.8162 47.0735 21.8162 46.09V43.1102H20.9508V42.4217H21.8162V41.1926L22.6228 40.9318V42.4217H23.8912V43.1102H22.6228V45.9473C22.6228 46.2849 22.6801 46.5259 22.7949 46.6704C22.9094 46.8145 23.0994 46.8866 23.3649 46.8866C23.5682 46.8866 23.7436 46.831 23.8912 46.7197V47.4078ZM24.6632 47.2726V46.4072C25.1023 46.7316 25.5859 46.8938 26.1138 46.8938C26.8219 46.8938 27.1759 46.6579 27.1759 46.1862C27.1759 46.0516 27.1448 45.9384 27.0825 45.8467C27.0234 45.7516 26.9414 45.668 26.8365 45.5959C26.735 45.5238 26.6137 45.4599 26.4727 45.4043C26.3349 45.3452 26.1857 45.2845 26.0251 45.2222C25.8025 45.1337 25.6059 45.0452 25.4352 44.9567C25.2682 44.865 25.1273 44.7633 25.0122 44.6518C24.9009 44.537 24.8157 44.4076 24.7566 44.2634C24.701 44.1192 24.6732 43.9504 24.6732 43.757C24.6732 43.5211 24.7272 43.3129 24.8353 43.1325C24.9435 42.9488 25.0876 42.7964 25.2679 42.6753C25.4481 42.5508 25.653 42.4572 25.8828 42.3947C26.1155 42.3324 26.3548 42.3012 26.6007 42.3012C27.0367 42.3012 27.4268 42.3768 27.771 42.5278V43.3439C27.4005 43.1012 26.9743 42.9798 26.4922 42.9798C26.3414 42.9798 26.2055 42.9978 26.0844 43.0339C25.963 43.0667 25.858 43.1144 25.7695 43.177C25.6842 43.239 25.617 43.3143 25.568 43.4028C25.5221 43.4881 25.4992 43.5832 25.4992 43.6882C25.4992 43.8191 25.5221 43.9288 25.568 44.0173C25.617 44.1058 25.6875 44.1846 25.7795 44.2535C25.8712 44.3224 25.9826 44.3846 26.1138 44.4403C26.245 44.4959 26.3942 44.5566 26.5614 44.6224C26.784 44.7074 26.9839 44.7959 27.1612 44.8879C27.3383 44.9764 27.4891 45.078 27.6136 45.1928C27.7382 45.3041 27.8332 45.4336 27.8986 45.5812C27.9675 45.7285 28.002 45.9038 28.002 46.1071C28.002 46.3562 27.9463 46.5726 27.835 46.7562C27.7266 46.9399 27.5806 47.0923 27.397 47.2134C27.2136 47.3348 27.0022 47.425 26.7629 47.4841C26.5236 47.5432 26.2728 47.5727 26.0104 47.5727C25.4926 47.5727 25.0434 47.4727 24.6628 47.2726H24.6632ZM31.5765 47.4078C31.3865 47.5127 31.1356 47.5652 30.824 47.5652C29.9423 47.5652 29.5014 47.0735 29.5014 46.09V43.1102H28.636V42.4217H29.5014V41.1926L30.308 40.9318V42.4217H31.5765V43.1102H30.308V45.9473C30.308 46.2849 30.3654 46.5259 30.4801 46.6704C30.5946 46.8145 30.7846 46.8866 31.0502 46.8866C31.2534 46.8866 31.4289 46.831 31.5765 46.7197V47.4078ZM35.2794 43.2378C35.1384 43.1297 34.9351 43.0756 34.6696 43.0756C34.3253 43.0756 34.0369 43.2378 33.8042 43.5622C33.5747 43.8868 33.4599 44.3294 33.4599 44.8899V47.4567H32.6538V42.4217H33.4599V43.4592H33.4798C33.5946 43.1052 33.7699 42.8298 34.0057 42.6332C34.2416 42.4331 34.5055 42.333 34.7976 42.333C35.0072 42.333 35.1678 42.3561 35.2794 42.4022V43.2378ZM39.7598 47.4555H38.9533V46.6684H38.9334C38.5828 47.2718 38.0666 47.5735 37.385 47.5735C36.8834 47.5735 36.4898 47.4408 36.2044 47.1752C35.9227 46.9097 35.7818 46.5572 35.7818 46.1178C35.7818 45.177 36.3357 44.6298 37.4435 44.4761L38.9533 44.2642C38.9533 43.4087 38.6074 42.981 37.9157 42.981C37.3094 42.981 36.762 43.1874 36.2736 43.6003V42.7743C36.7686 42.4597 37.3391 42.3024 37.9849 42.3024C39.1682 42.3024 39.7598 42.9285 39.7598 44.1807V47.4555ZM38.9533 44.9086L37.7388 45.0755C37.3652 45.128 37.0832 45.2214 36.8929 45.3558C36.7029 45.487 36.6079 45.7214 36.6079 46.059C36.6079 46.3049 36.6948 46.5066 36.8687 46.664C37.0457 46.8177 37.2801 46.8946 37.5719 46.8946C37.9718 46.8946 38.3012 46.7555 38.5601 46.4772C38.8225 46.1952 38.9536 45.8394 38.9536 45.4098L38.9533 44.9086ZM42.1052 46.728H42.0853V49.7718H41.2791V42.4205H42.0857V43.3054H42.1052C42.5019 42.6367 43.0822 42.3024 43.8459 42.3024C44.4949 42.3024 45.0014 42.5286 45.3652 42.981C45.7291 43.4299 45.911 44.0331 45.911 44.7905C45.911 45.633 45.7062 46.3082 45.2965 46.8163C44.8868 47.3211 44.3263 47.5735 43.615 47.5735C42.9625 47.5735 42.4592 47.2916 42.1052 46.7276V46.728ZM42.0853 44.6971V45.4007C42.0853 45.8168 42.2198 46.1707 42.4888 46.4625C42.761 46.7511 43.1051 46.8954 43.5211 46.8954C44.0098 46.8954 44.3918 46.7085 44.6672 46.3349C44.9455 45.9612 45.0846 45.4415 45.0846 44.7758C45.0846 44.2153 44.9553 43.776 44.6966 43.458C44.4377 43.14 44.087 42.981 43.6444 42.981C43.1753 42.981 42.7983 43.1449 42.5134 43.4727C42.228 43.7974 42.0853 44.2055 42.0853 44.6971V44.6971Z" fill="#7952B3"/>
</svg>
