<svg width="50" height="50" viewBox="0 0 50 50" fill="none" xmlns="http://www.w3.org/2000/svg">
<path d="M34.7571 1.85092H31.8173L34.8745 5.16857V6.74796H28.5777V4.89863H31.6345L28.5777 1.58099V0H34.7571V1.85092ZM27.3291 1.85092H24.3893L27.4466 5.16857V6.74796H21.1493V4.89863H24.2065L21.1493 1.58099V0H27.3291V1.85092ZM19.974 1.92657H16.8017V4.8214H19.974V6.74796H14.5466V0H19.974V1.92657Z" fill="#131313"/>
<path d="M10.2237 45.984L7 9.82832H42.4207L39.1943 45.9781L24.6887 50L10.2237 45.984V45.984Z" fill="#1572B6"/>
<path d="M24.7109 46.926L36.4316 43.6764L39.1891 12.7849H24.7109V46.926Z" fill="#33A9DC"/>
<path d="M24.7104 25.8839H30.5781L30.9838 21.3431H24.7104V16.9087H35.8299L35.7236 18.0984L34.6339 30.3179H24.7104V25.8839Z" fill="white"/>
<path d="M24.7373 37.4003L24.7178 37.4058L19.7793 36.0721L19.4632 32.5355H15.0125L15.6339 39.498L24.717 42.0194L24.7377 42.0134V37.4003H24.7373Z" fill="#EBEBEB"/>
<path d="M30.2016 30.1303L29.6673 36.0689L24.7217 37.4038V42.0174L33.8123 39.498L33.8791 38.7487L34.6507 30.1303H30.2016Z" fill="white"/>
<path d="M24.726 16.9087V21.3428H14.015L13.9258 20.3462L13.724 18.0984L13.6177 16.9087H24.726ZM24.7105 25.8843V30.3187H19.8345L19.7457 29.3221L19.5435 27.0739L19.4372 25.8843H24.7105Z" fill="#EBEBEB"/>
</svg>
