<svg width="50" height="50" viewBox="0 0 50 50" fill="none" xmlns="http://www.w3.org/2000/svg">
<path d="M22.7458 0H30.9827V37.523C26.7636 38.3163 23.6577 38.6283 20.2971 38.6283C10.2368 38.6179 5 34.1508 5 25.5713C5 17.305 10.5549 11.9402 19.1628 11.9402C20.4985 11.9402 21.5161 12.0447 22.7458 12.3577V0ZM23.0345 19.1198C22.0698 18.8066 21.2748 18.7023 20.2571 18.7023C16.091 18.7023 13.6846 21.228 13.6846 25.6544C13.6846 29.9641 15.9851 32.3437 20.2042 32.3437C21.1157 32.3437 21.8578 32.2927 23.0345 32.1361V19.1198V19.1198Z" fill="#2BA977"/>
<path d="M44.4524 12.9476V31.7349C44.4524 38.2049 43.9648 41.3162 42.5337 43.9987C41.1979 46.5776 39.4382 48.2038 35.8022 50L28.1589 46.4201C31.795 44.7406 33.5547 43.2565 34.6785 40.9917C35.855 38.6757 36.2261 35.9932 36.2261 28.9376V12.9478H44.4524V12.9476ZM35.396 0H43.6329V8.31853H35.396V0Z" fill="#2BA977"/>
</svg>
