<svg width="83" height="36" viewBox="0 0 83 36" fill="none" xmlns="http://www.w3.org/2000/svg">
<rect x="0.714233" y="5.14286" width="82.2857" height="27" rx="2" fill="white"/>
<path d="M28.6822 28.2857V11.8993H29.5068V14.4771C29.6042 14.3629 29.6942 14.2416 29.776 14.114C30.113 13.3595 30.6423 12.7243 31.302 12.2827C31.9616 11.8412 32.7243 11.6116 33.5006 11.621C35.3797 11.5605 36.9054 12.3108 37.8029 14.114C38.3739 15.2342 38.6882 16.4856 38.7194 17.7635C38.7506 19.0415 38.4979 20.309 37.9823 21.4601C37.1466 23.4811 35.0824 24.4856 32.8723 24.1165C32.1846 24.0533 31.5225 23.8053 30.9464 23.3952C30.3702 22.9851 29.8985 22.4259 29.5741 21.7687V28.2857H28.6822ZM29.5068 17.6963C29.5797 18.495 29.6078 19.0638 29.6919 19.6205C30.0172 21.811 31.2176 23.112 33.1023 23.348C33.9873 23.5049 34.8953 23.3259 35.6716 22.8416C36.4479 22.3572 37.0445 21.5973 37.3597 20.6916C37.7219 19.7599 37.8962 18.7558 37.8711 17.7459C37.8459 16.736 37.6219 15.7434 37.2139 14.8341C36.8775 14.0223 36.3053 13.3506 35.5838 12.9205C34.8623 12.4904 34.0307 12.3252 33.2145 12.45C32.4482 12.5099 31.7183 12.8258 31.1262 13.354C30.534 13.8821 30.1092 14.5962 29.9107 15.3969C29.735 16.1543 29.6001 16.922 29.5068 17.6963V17.6963ZM55.5392 19.9231C55.4143 21.0768 54.9052 22.1423 54.1066 22.9214C53.308 23.7006 52.2743 24.1403 51.1977 24.1589C47.7424 24.3464 46.1213 21.8715 45.8633 19.0154C45.6842 17.4644 45.9177 15.8904 46.5364 14.4771C46.9673 13.5076 47.673 12.7113 48.5513 12.2032C49.4297 11.6952 50.4351 11.5019 51.4221 11.6512C52.3604 11.737 53.2499 12.1391 53.9646 12.8004C54.6794 13.4618 55.1831 14.349 55.4046 15.3363C55.5802 16.2356 55.7094 17.1447 55.7916 18.0593H46.7103C46.542 20.6492 47.8322 22.7308 49.6608 23.233C51.9381 23.8382 53.8845 22.7732 54.5913 20.4374C54.7483 19.8384 55.0344 19.7537 55.5392 19.9231V19.9231ZM46.7103 17.2303H54.8269C54.7764 14.471 53.1834 12.4742 51.0238 12.4439C48.5782 12.4016 46.8169 14.3258 46.7103 17.2303ZM57.2108 19.9836H58.0073C58.0367 20.6159 58.2271 21.2271 58.5577 21.7502C58.8882 22.2733 59.346 22.688 59.8808 22.9486C60.5523 23.2746 61.2833 23.4331 62.0195 23.4121C62.7556 23.3912 63.4779 23.1914 64.1326 22.8276C64.4893 22.6541 64.7882 22.3667 64.9888 22.0042C65.1894 21.6418 65.2821 21.2216 65.2544 20.8005C65.2749 20.3943 65.1721 19.9921 64.9616 19.6546C64.751 19.3172 64.4442 19.0631 64.0877 18.9307C63.2127 18.5797 62.2815 18.3861 61.3896 18.0775C60.4617 17.7924 59.5543 17.4344 58.6748 17.0065C57.2388 16.2501 57.1491 13.3032 58.7758 12.3713C59.6087 11.8642 60.5461 11.5903 61.5023 11.5744C62.4586 11.5586 63.4034 11.8013 64.2504 12.2805C64.7634 12.5864 65.1779 13.0538 65.4384 13.6203C65.699 14.1868 65.7933 14.8255 65.7088 15.4513H65.0244C65.0244 15.415 64.9627 15.3848 64.9627 15.3484C64.8786 12.9946 63.05 12.2684 61.0868 12.4742C60.5007 12.5522 59.9315 12.7384 59.404 13.0248C59.0871 13.1812 58.823 13.4398 58.6482 13.7649C58.4734 14.0901 58.3964 14.4658 58.428 14.8402C58.429 15.2147 58.5373 15.5797 58.7381 15.8852C58.939 16.1907 59.2225 16.4217 59.5498 16.5466C60.4136 16.8854 61.3167 17.1033 62.203 17.3695C62.9154 17.5813 63.6558 17.7205 64.3457 17.9746C64.8327 18.1468 65.2597 18.4745 65.5702 18.9143C65.8807 19.3541 66.0601 19.8852 66.0846 20.4374C66.1678 21.0425 66.0723 21.6604 65.8115 22.2035C65.5507 22.7466 65.1379 23.1873 64.6318 23.463C62.7583 24.6066 59.6732 24.3041 58.299 22.8579C57.9507 22.48 57.6752 22.0315 57.4884 21.5381C57.3017 21.0448 57.2073 20.5165 57.2108 19.9836ZM76.1812 15.4513H75.4352C75.4352 15.3424 75.3959 15.2456 75.3847 15.1548C75.3726 14.5516 75.1687 13.9711 74.8072 13.5106C74.4457 13.0502 73.9486 12.7377 73.399 12.6255C72.362 12.3045 71.2558 12.3619 70.2522 12.7888C69.8555 12.9115 69.5063 13.1694 69.2566 13.5238C69.0069 13.8782 68.8701 14.3103 68.8667 14.7554C68.8528 15.1926 68.9791 15.6216 69.2244 15.97C69.4696 16.3184 69.8188 16.5648 70.213 16.6676C71.3348 17.0428 72.4847 17.2727 73.6234 17.6116C73.9924 17.7071 74.3557 17.8263 74.7116 17.9686C75.2429 18.1737 75.7045 18.5469 76.0361 19.0395C76.3677 19.532 76.5539 20.1211 76.5702 20.7296C76.5866 21.3381 76.4324 21.9378 76.1278 22.4503C75.8232 22.9628 75.3824 23.3642 74.863 23.6022C74.0714 23.9899 73.2135 24.1951 72.3442 24.2044C71.4749 24.2138 70.6133 24.0272 69.8147 23.6566C69.158 23.3511 68.6038 22.8358 68.2267 22.1802C67.8496 21.5246 67.6678 20.7601 67.7056 19.9896H68.4348C68.5697 20.6917 68.8612 21.3478 69.2841 21.901C69.707 22.4542 70.2485 22.8878 70.8618 23.1643C71.475 23.4409 72.1415 23.552 72.8035 23.488C73.4655 23.4241 74.1031 23.187 74.6611 22.7974C75.001 22.6069 75.2831 22.3152 75.474 21.957C75.6649 21.5988 75.7565 21.189 75.7381 20.7763C75.755 20.3699 75.6485 19.9687 75.435 19.6334C75.2214 19.2982 74.9123 19.0472 74.5545 18.9186C73.6795 18.5676 72.7483 18.3801 71.8565 18.0714C70.9232 17.7908 70.0102 17.4368 69.1248 17.0125C67.7225 16.2682 67.6103 13.3455 69.2089 12.4137C70.0522 11.8854 71.0079 11.6016 71.983 11.5899C72.9581 11.5782 73.9193 11.8391 74.7733 12.3471C75.2616 12.6616 75.6547 13.1225 75.9047 13.6736C76.1546 14.2247 76.2507 14.8424 76.1812 15.4513V15.4513ZM27.3192 23.8624C27.0255 23.9823 26.7013 23.9821 26.4078 23.8617C26.1142 23.7412 25.8718 23.509 25.7262 23.2088C24.8119 21.7324 23.8022 20.3225 22.8318 18.8823L22.4111 18.2772C21.2556 19.9473 20.1001 21.5508 19.0456 23.2149C18.9082 23.5018 18.6788 23.725 18.4002 23.843C18.1216 23.961 17.8127 23.9657 17.5311 23.8563L21.867 17.5813L17.834 11.9114C18.1243 11.7983 18.4419 11.7968 18.7332 11.907C19.0244 12.0173 19.2715 12.2326 19.4326 12.5165C20.3694 13.993 21.4071 15.4029 22.4392 16.8975C23.4769 15.415 24.5034 13.9991 25.4626 12.5347C25.6007 12.2525 25.8302 12.0349 26.1074 11.9233C26.3846 11.8117 26.6901 11.814 26.9658 11.9296L25.4009 14.1685C24.6997 15.1669 24.0098 16.1714 23.2806 17.1456C23.2218 17.2024 23.1748 17.2719 23.1426 17.3495C23.1104 17.4272 23.0938 17.5114 23.0938 17.5964C23.0938 17.6815 23.1104 17.7656 23.1426 17.8433C23.1748 17.921 23.2218 17.9905 23.2806 18.0472C24.6212 19.9654 25.9506 21.8897 27.3192 23.8624V23.8624ZM45.7287 11.8509V12.6981C45.1614 12.6579 44.5925 12.7466 44.0589 12.9582C43.5253 13.1699 43.0388 13.5 42.6308 13.927C42.2227 14.3541 41.9022 14.8688 41.6899 15.4377C41.4776 16.0067 41.3783 16.6174 41.3984 17.2303V23.8866H40.5962V11.8993H41.3815V14.3561C42.3519 12.5649 43.8496 11.8993 45.7287 11.8509V11.8509ZM7.14282 17.5026C7.26062 16.8975 7.33354 16.238 7.4962 15.6207C8.4666 11.8993 12.4211 10.3502 15.1416 12.6557C16.7346 14.0051 17.1329 15.9173 17.0543 18.0714H8.07956C7.93372 21.9199 10.5084 24.2436 13.801 23.0576C14.3351 22.8515 14.8132 22.5051 15.1922 22.0498C15.5712 21.5945 15.8391 21.0445 15.9717 20.4495C16.1456 19.8444 16.4261 19.7416 16.959 19.917C16.8712 20.6537 16.6297 21.3593 16.2528 21.9808C15.8758 22.6023 15.3732 23.1236 14.7826 23.5053C13.8068 24.081 12.6873 24.309 11.5841 24.1569C10.4809 24.0047 9.45063 23.4801 8.64049 22.6582C7.83902 21.686 7.3544 20.4577 7.26062 19.1606C7.26062 18.9549 7.1877 18.7492 7.14843 18.5555C7.14469 18.1965 7.14282 17.8455 7.14282 17.5026V17.5026ZM8.09078 17.2424H16.2073C16.1568 14.4529 14.5246 12.4742 12.3482 12.456C9.925 12.4197 8.19175 14.3561 8.08517 17.2303L8.09078 17.2424Z" fill="black"/>
</svg>
