<svg width="56" height="50" viewBox="0 0 56 50" fill="none" xmlns="http://www.w3.org/2000/svg">
<mask id="path-1-outside-1_5_165" maskUnits="userSpaceOnUse" x="0" y="21" width="56" height="15" fill="black">
<rect fill="white" y="21" width="56" height="15"/>
<path d="M17.7529 35V22.255H18.3942V24.26C18.47 24.1711 18.5399 24.0768 18.6036 23.9776C18.8657 23.3907 19.2774 22.8967 19.7904 22.5532C20.3035 22.2098 20.8967 22.0313 21.5005 22.0385C22.962 21.9915 24.1487 22.5751 24.8467 23.9776C25.2908 24.8488 25.5353 25.8221 25.5596 26.8161C25.5838 27.8101 25.3873 28.7959 24.9863 29.6912C24.3363 31.2631 22.7308 32.0444 21.0118 31.7573C20.4769 31.7081 19.9619 31.5153 19.5139 31.1963C19.0658 30.8773 18.6988 30.4424 18.4466 29.9312V35H17.7529ZM18.3942 26.7638C18.4509 27.385 18.4727 27.8274 18.5382 28.2604C18.7912 29.9641 19.7248 30.976 21.1907 31.1596C21.879 31.2816 22.5853 31.1424 23.1891 30.7657C23.7929 30.3889 24.2569 29.7979 24.502 29.0934C24.7837 28.3688 24.9193 27.5879 24.8997 26.8024C24.8802 26.0169 24.706 25.2449 24.3886 24.5376C24.1269 23.9062 23.6819 23.3838 23.1208 23.0493C22.5596 22.7148 21.9128 22.5863 21.278 22.6833C20.682 22.7299 20.1142 22.9757 19.6537 23.3864C19.1932 23.7972 18.8627 24.3526 18.7083 24.9753C18.5717 25.5644 18.4668 26.1616 18.3942 26.7638V26.7638ZM38.6417 28.4957C38.5445 29.3931 38.1485 30.2218 37.5274 30.8278C36.9063 31.4338 36.1023 31.7758 35.2649 31.7902C32.5775 31.9361 31.3166 30.0112 31.1159 27.7898C30.9766 26.5834 31.1582 25.3592 31.6395 24.26C31.9746 23.5059 32.5235 22.8865 33.2066 22.4914C33.8898 22.0963 34.6718 21.9459 35.4394 22.0621C36.1692 22.1288 36.861 22.4415 37.417 22.9559C37.9729 23.4703 38.3647 24.1603 38.5369 24.9283C38.6735 25.6277 38.774 26.3347 38.838 27.0462H31.7747C31.6438 29.0605 32.6473 30.6795 34.0695 31.0701C35.8408 31.5408 37.3546 30.7125 37.9043 28.8958C38.0265 28.4298 38.249 28.364 38.6417 28.4957V28.4957ZM31.7747 26.4014H38.0876C38.0483 24.2553 36.8093 22.7021 35.1297 22.6786C33.2275 22.6457 31.8576 24.1423 31.7747 26.4014ZM39.9417 28.5428H40.5613C40.5841 29.0346 40.7323 29.51 40.9893 29.9168C41.2464 30.3237 41.6025 30.6462 42.0184 30.8489C42.5407 31.1025 43.1093 31.2257 43.6818 31.2094C44.2544 31.1931 44.8162 31.0377 45.3254 30.7548C45.6028 30.6199 45.8353 30.3963 45.9913 30.1144C46.1473 29.8325 46.2194 29.5057 46.1979 29.1782C46.2139 28.8623 46.1339 28.5494 45.9701 28.2869C45.8064 28.0245 45.5678 27.8268 45.2905 27.7239C44.6099 27.4509 43.8857 27.3003 43.192 27.0603C42.4702 26.8386 41.7645 26.5601 41.0804 26.2272C39.9636 25.6389 39.8938 23.3469 41.1589 22.6221C41.8068 22.2277 42.5359 22.0147 43.2796 22.0023C44.0234 21.99 44.7582 22.1788 45.417 22.5515C45.816 22.7895 46.1384 23.153 46.341 23.5936C46.5437 24.0342 46.617 24.531 46.5513 25.0177H46.019C46.019 24.9895 45.971 24.9659 45.971 24.9377C45.9056 23.1069 44.4833 22.5421 42.9564 22.7021C42.5006 22.7628 42.0578 22.9077 41.6476 23.1304C41.4011 23.252 41.1957 23.4532 41.0597 23.7061C40.9238 23.959 40.8639 24.2512 40.8885 24.5423C40.8892 24.8336 40.9735 25.1176 41.1297 25.3552C41.2859 25.5928 41.5064 25.7725 41.761 25.8696C42.4329 26.1331 43.1353 26.3025 43.8246 26.5096C44.3786 26.6744 44.9545 26.7826 45.4911 26.9803C45.8699 27.1142 46.202 27.3691 46.4435 27.7111C46.685 28.0532 46.8245 28.4663 46.8436 28.8958C46.9083 29.3664 46.834 29.847 46.6312 30.2694C46.4283 30.6918 46.1073 31.0346 45.7136 31.249C44.2565 32.1385 41.857 31.9032 40.7881 30.7783C40.5172 30.4844 40.303 30.1356 40.1577 29.7519C40.0124 29.3682 39.939 28.9573 39.9417 28.5428ZM54.6965 25.0177H54.1163C54.1163 24.933 54.0857 24.8577 54.077 24.7871C54.0676 24.3179 53.909 23.8664 53.6279 23.5083C53.3467 23.1501 52.96 22.9071 52.5326 22.8198C51.7261 22.5702 50.8657 22.6148 50.0851 22.9469C49.7766 23.0423 49.5049 23.2428 49.3107 23.5185C49.1165 23.7942 49.0101 24.1302 49.0075 24.4765C48.9967 24.8165 49.0949 25.1502 49.2857 25.4211C49.4764 25.6921 49.748 25.8837 50.0546 25.9637C50.9271 26.2555 51.8215 26.4343 52.7071 26.6979C52.9941 26.7722 53.2767 26.8649 53.5535 26.9756C53.9667 27.1351 54.3258 27.4253 54.5837 27.8085C54.8416 28.1916 54.9864 28.6497 54.9991 29.123C55.0118 29.5963 54.8919 30.0627 54.655 30.4613C54.4181 30.8599 54.0753 31.1722 53.6713 31.3572C53.0556 31.6588 52.3883 31.8184 51.7122 31.8257C51.036 31.833 50.3659 31.6878 49.7448 31.3996C49.234 31.1619 48.803 30.7612 48.5097 30.2513C48.2164 29.7414 48.075 29.1468 48.1044 28.5475H48.6716C48.7765 29.0936 49.0032 29.6038 49.3321 30.0341C49.661 30.4643 50.0822 30.8016 50.5592 31.0167C51.0362 31.2318 51.5545 31.3182 52.0694 31.2685C52.5843 31.2187 53.0802 31.0344 53.5142 30.7313C53.7786 30.5831 53.998 30.3563 54.1464 30.0777C54.2949 29.799 54.3662 29.4803 54.3518 29.1593C54.365 28.8433 54.2822 28.5312 54.1161 28.2704C53.95 28.0097 53.7096 27.8145 53.4313 27.7145C52.7507 27.4415 52.0265 27.2956 51.3328 27.0556C50.607 26.8373 49.8968 26.562 49.2082 26.2319C48.1175 25.6531 48.0302 23.3799 49.2736 22.6551C49.9295 22.2442 50.6728 22.0234 51.4312 22.0144C52.1896 22.0053 52.9373 22.2082 53.6015 22.6033C53.9813 22.8479 54.287 23.2064 54.4814 23.635C54.6759 24.0637 54.7506 24.5441 54.6965 25.0177V25.0177ZM16.6927 31.5596C16.4643 31.6529 16.2121 31.6527 15.9838 31.5591C15.7555 31.4654 15.567 31.2848 15.4537 31.0513C14.7426 29.903 13.9573 28.8064 13.2026 27.6862L12.8754 27.2156C11.9766 28.5146 11.0779 29.7618 10.2577 31.056C10.1509 31.2791 9.97246 31.4528 9.75575 31.5445C9.53905 31.6363 9.29881 31.64 9.07978 31.5549L12.4522 26.6744L9.31537 22.2644C9.54116 22.1765 9.78818 22.1753 10.0147 22.261C10.2412 22.3468 10.4334 22.5142 10.5587 22.7351C11.2873 23.8834 12.0944 24.98 12.8972 26.1425C13.7043 24.9895 14.5027 23.8882 15.2487 22.7492C15.3561 22.5297 15.5346 22.3605 15.7502 22.2737C15.9658 22.1869 16.2034 22.1886 16.4179 22.2786L15.2007 24.0199C14.6553 24.7965 14.1187 25.5778 13.5516 26.3355C13.5059 26.3796 13.4693 26.4337 13.4443 26.4941C13.4193 26.5545 13.4063 26.6199 13.4063 26.6861C13.4063 26.7523 13.4193 26.8177 13.4443 26.8781C13.4693 26.9386 13.5059 26.9926 13.5516 27.0367C14.5943 28.5287 15.6282 30.0253 16.6927 31.5596V31.5596ZM31.0112 22.2174V22.8763C30.57 22.8451 30.1276 22.914 29.7125 23.0786C29.2975 23.2433 28.9191 23.5 28.6017 23.8321C28.2844 24.1643 28.0351 24.5646 27.87 25.0071C27.7049 25.4497 27.6276 25.9246 27.6432 26.4014V31.5784H27.0193V22.255H27.6301V24.1658C28.3849 22.7727 29.5497 22.255 31.0112 22.2174V22.2174ZM1 26.6132C1.09162 26.1425 1.14833 25.6295 1.27485 25.1495C2.0296 22.255 5.10533 21.0502 7.22125 22.8433C8.46027 23.8929 8.77002 25.3801 8.70895 27.0556H1.72858C1.61515 30.0489 3.61764 31.8561 6.17856 30.9337C6.59398 30.7734 6.96586 30.504 7.26062 30.1498C7.55539 29.7957 7.76376 29.3679 7.86694 28.9052C8.00218 28.4346 8.22032 28.3545 8.63478 28.491C8.56651 29.064 8.37872 29.6128 8.08553 30.0962C7.79234 30.5796 7.40138 30.985 6.94204 31.2819C6.1831 31.7296 5.31236 31.907 4.45434 31.7887C3.59632 31.6703 2.79496 31.2623 2.16485 30.623C1.54148 29.8669 1.16456 28.9116 1.09162 27.9027C1.09162 27.7427 1.0349 27.5827 1.00436 27.4321C1.00145 27.1528 1 26.8799 1 26.6132V26.6132ZM1.7373 26.4108H8.05017C8.01091 24.2411 6.74135 22.7021 5.04861 22.688C3.16391 22.6598 1.81583 24.1658 1.73294 26.4014L1.7373 26.4108Z"/>
</mask>
<path d="M17.7529 35V22.255H18.3942V24.26C18.47 24.1711 18.5399 24.0768 18.6036 23.9776C18.8657 23.3907 19.2774 22.8967 19.7904 22.5532C20.3035 22.2098 20.8967 22.0313 21.5005 22.0385C22.962 21.9915 24.1487 22.5751 24.8467 23.9776C25.2908 24.8488 25.5353 25.8221 25.5596 26.8161C25.5838 27.8101 25.3873 28.7959 24.9863 29.6912C24.3363 31.2631 22.7308 32.0444 21.0118 31.7573C20.4769 31.7081 19.9619 31.5153 19.5139 31.1963C19.0658 30.8773 18.6988 30.4424 18.4466 29.9312V35H17.7529ZM18.3942 26.7638C18.4509 27.385 18.4727 27.8274 18.5382 28.2604C18.7912 29.9641 19.7248 30.976 21.1907 31.1596C21.879 31.2816 22.5853 31.1424 23.1891 30.7657C23.7929 30.3889 24.2569 29.7979 24.502 29.0934C24.7837 28.3688 24.9193 27.5879 24.8997 26.8024C24.8802 26.0169 24.706 25.2449 24.3886 24.5376C24.1269 23.9062 23.6819 23.3838 23.1208 23.0493C22.5596 22.7148 21.9128 22.5863 21.278 22.6833C20.682 22.7299 20.1142 22.9757 19.6537 23.3864C19.1932 23.7972 18.8627 24.3526 18.7083 24.9753C18.5717 25.5644 18.4668 26.1616 18.3942 26.7638V26.7638ZM38.6417 28.4957C38.5445 29.3931 38.1485 30.2218 37.5274 30.8278C36.9063 31.4338 36.1023 31.7758 35.2649 31.7902C32.5775 31.9361 31.3166 30.0112 31.1159 27.7898C30.9766 26.5834 31.1582 25.3592 31.6395 24.26C31.9746 23.5059 32.5235 22.8865 33.2066 22.4914C33.8898 22.0963 34.6718 21.9459 35.4394 22.0621C36.1692 22.1288 36.861 22.4415 37.417 22.9559C37.9729 23.4703 38.3647 24.1603 38.5369 24.9283C38.6735 25.6277 38.774 26.3347 38.838 27.0462H31.7747C31.6438 29.0605 32.6473 30.6795 34.0695 31.0701C35.8408 31.5408 37.3546 30.7125 37.9043 28.8958C38.0265 28.4298 38.249 28.364 38.6417 28.4957V28.4957ZM31.7747 26.4014H38.0876C38.0483 24.2553 36.8093 22.7021 35.1297 22.6786C33.2275 22.6457 31.8576 24.1423 31.7747 26.4014ZM39.9417 28.5428H40.5613C40.5841 29.0346 40.7323 29.51 40.9893 29.9168C41.2464 30.3237 41.6025 30.6462 42.0184 30.8489C42.5407 31.1025 43.1093 31.2257 43.6818 31.2094C44.2544 31.1931 44.8162 31.0377 45.3254 30.7548C45.6028 30.6199 45.8353 30.3963 45.9913 30.1144C46.1473 29.8325 46.2194 29.5057 46.1979 29.1782C46.2139 28.8623 46.1339 28.5494 45.9701 28.2869C45.8064 28.0245 45.5678 27.8268 45.2905 27.7239C44.6099 27.4509 43.8857 27.3003 43.192 27.0603C42.4702 26.8386 41.7645 26.5601 41.0804 26.2272C39.9636 25.6389 39.8938 23.3469 41.1589 22.6221C41.8068 22.2277 42.5359 22.0147 43.2796 22.0023C44.0234 21.99 44.7582 22.1788 45.417 22.5515C45.816 22.7895 46.1384 23.153 46.341 23.5936C46.5437 24.0342 46.617 24.531 46.5513 25.0177H46.019C46.019 24.9895 45.971 24.9659 45.971 24.9377C45.9056 23.1069 44.4833 22.5421 42.9564 22.7021C42.5006 22.7628 42.0578 22.9077 41.6476 23.1304C41.4011 23.252 41.1957 23.4532 41.0597 23.7061C40.9238 23.959 40.8639 24.2512 40.8885 24.5423C40.8892 24.8336 40.9735 25.1176 41.1297 25.3552C41.2859 25.5928 41.5064 25.7725 41.761 25.8696C42.4329 26.1331 43.1353 26.3025 43.8246 26.5096C44.3786 26.6744 44.9545 26.7826 45.4911 26.9803C45.8699 27.1142 46.202 27.3691 46.4435 27.7111C46.685 28.0532 46.8245 28.4663 46.8436 28.8958C46.9083 29.3664 46.834 29.847 46.6312 30.2694C46.4283 30.6918 46.1073 31.0346 45.7136 31.249C44.2565 32.1385 41.857 31.9032 40.7881 30.7783C40.5172 30.4844 40.303 30.1356 40.1577 29.7519C40.0124 29.3682 39.939 28.9573 39.9417 28.5428ZM54.6965 25.0177H54.1163C54.1163 24.933 54.0857 24.8577 54.077 24.7871C54.0676 24.3179 53.909 23.8664 53.6279 23.5083C53.3467 23.1501 52.96 22.9071 52.5326 22.8198C51.7261 22.5702 50.8657 22.6148 50.0851 22.9469C49.7766 23.0423 49.5049 23.2428 49.3107 23.5185C49.1165 23.7942 49.0101 24.1302 49.0075 24.4765C48.9967 24.8165 49.0949 25.1502 49.2857 25.4211C49.4764 25.6921 49.748 25.8837 50.0546 25.9637C50.9271 26.2555 51.8215 26.4343 52.7071 26.6979C52.9941 26.7722 53.2767 26.8649 53.5535 26.9756C53.9667 27.1351 54.3258 27.4253 54.5837 27.8085C54.8416 28.1916 54.9864 28.6497 54.9991 29.123C55.0118 29.5963 54.8919 30.0627 54.655 30.4613C54.4181 30.8599 54.0753 31.1722 53.6713 31.3572C53.0556 31.6588 52.3883 31.8184 51.7122 31.8257C51.036 31.833 50.3659 31.6878 49.7448 31.3996C49.234 31.1619 48.803 30.7612 48.5097 30.2513C48.2164 29.7414 48.075 29.1468 48.1044 28.5475H48.6716C48.7765 29.0936 49.0032 29.6038 49.3321 30.0341C49.661 30.4643 50.0822 30.8016 50.5592 31.0167C51.0362 31.2318 51.5545 31.3182 52.0694 31.2685C52.5843 31.2187 53.0802 31.0344 53.5142 30.7313C53.7786 30.5831 53.998 30.3563 54.1464 30.0777C54.2949 29.799 54.3662 29.4803 54.3518 29.1593C54.365 28.8433 54.2822 28.5312 54.1161 28.2704C53.95 28.0097 53.7096 27.8145 53.4313 27.7145C52.7507 27.4415 52.0265 27.2956 51.3328 27.0556C50.607 26.8373 49.8968 26.562 49.2082 26.2319C48.1175 25.6531 48.0302 23.3799 49.2736 22.6551C49.9295 22.2442 50.6728 22.0234 51.4312 22.0144C52.1896 22.0053 52.9373 22.2082 53.6015 22.6033C53.9813 22.8479 54.287 23.2064 54.4814 23.635C54.6759 24.0637 54.7506 24.5441 54.6965 25.0177V25.0177ZM16.6927 31.5596C16.4643 31.6529 16.2121 31.6527 15.9838 31.5591C15.7555 31.4654 15.567 31.2848 15.4537 31.0513C14.7426 29.903 13.9573 28.8064 13.2026 27.6862L12.8754 27.2156C11.9766 28.5146 11.0779 29.7618 10.2577 31.056C10.1509 31.2791 9.97246 31.4528 9.75575 31.5445C9.53905 31.6363 9.29881 31.64 9.07978 31.5549L12.4522 26.6744L9.31537 22.2644C9.54116 22.1765 9.78818 22.1753 10.0147 22.261C10.2412 22.3468 10.4334 22.5142 10.5587 22.7351C11.2873 23.8834 12.0944 24.98 12.8972 26.1425C13.7043 24.9895 14.5027 23.8882 15.2487 22.7492C15.3561 22.5297 15.5346 22.3605 15.7502 22.2737C15.9658 22.1869 16.2034 22.1886 16.4179 22.2786L15.2007 24.0199C14.6553 24.7965 14.1187 25.5778 13.5516 26.3355C13.5059 26.3796 13.4693 26.4337 13.4443 26.4941C13.4193 26.5545 13.4063 26.6199 13.4063 26.6861C13.4063 26.7523 13.4193 26.8177 13.4443 26.8781C13.4693 26.9386 13.5059 26.9926 13.5516 27.0367C14.5943 28.5287 15.6282 30.0253 16.6927 31.5596V31.5596ZM31.0112 22.2174V22.8763C30.57 22.8451 30.1276 22.914 29.7125 23.0786C29.2975 23.2433 28.9191 23.5 28.6017 23.8321C28.2844 24.1643 28.0351 24.5646 27.87 25.0071C27.7049 25.4497 27.6276 25.9246 27.6432 26.4014V31.5784H27.0193V22.255H27.6301V24.1658C28.3849 22.7727 29.5497 22.255 31.0112 22.2174V22.2174ZM1 26.6132C1.09162 26.1425 1.14833 25.6295 1.27485 25.1495C2.0296 22.255 5.10533 21.0502 7.22125 22.8433C8.46027 23.8929 8.77002 25.3801 8.70895 27.0556H1.72858C1.61515 30.0489 3.61764 31.8561 6.17856 30.9337C6.59398 30.7734 6.96586 30.504 7.26062 30.1498C7.55539 29.7957 7.76376 29.3679 7.86694 28.9052C8.00218 28.4346 8.22032 28.3545 8.63478 28.491C8.56651 29.064 8.37872 29.6128 8.08553 30.0962C7.79234 30.5796 7.40138 30.985 6.94204 31.2819C6.1831 31.7296 5.31236 31.907 4.45434 31.7887C3.59632 31.6703 2.79496 31.2623 2.16485 30.623C1.54148 29.8669 1.16456 28.9116 1.09162 27.9027C1.09162 27.7427 1.0349 27.5827 1.00436 27.4321C1.00145 27.1528 1 26.8799 1 26.6132V26.6132ZM1.7373 26.4108H8.05017C8.01091 24.2411 6.74135 22.7021 5.04861 22.688C3.16391 22.6598 1.81583 24.1658 1.73294 26.4014L1.7373 26.4108Z" fill="black"/>
<path d="M17.7529 35V22.255H18.3942V24.26C18.47 24.1711 18.5399 24.0768 18.6036 23.9776C18.8657 23.3907 19.2774 22.8967 19.7904 22.5532C20.3035 22.2098 20.8967 22.0313 21.5005 22.0385C22.962 21.9915 24.1487 22.5751 24.8467 23.9776C25.2908 24.8488 25.5353 25.8221 25.5596 26.8161C25.5838 27.8101 25.3873 28.7959 24.9863 29.6912C24.3363 31.2631 22.7308 32.0444 21.0118 31.7573C20.4769 31.7081 19.9619 31.5153 19.5139 31.1963C19.0658 30.8773 18.6988 30.4424 18.4466 29.9312V35H17.7529ZM18.3942 26.7638C18.4509 27.385 18.4727 27.8274 18.5382 28.2604C18.7912 29.9641 19.7248 30.976 21.1907 31.1596C21.879 31.2816 22.5853 31.1424 23.1891 30.7657C23.7929 30.3889 24.2569 29.7979 24.502 29.0934C24.7837 28.3688 24.9193 27.5879 24.8997 26.8024C24.8802 26.0169 24.706 25.2449 24.3886 24.5376C24.1269 23.9062 23.6819 23.3838 23.1208 23.0493C22.5596 22.7148 21.9128 22.5863 21.278 22.6833C20.682 22.7299 20.1142 22.9757 19.6537 23.3864C19.1932 23.7972 18.8627 24.3526 18.7083 24.9753C18.5717 25.5644 18.4668 26.1616 18.3942 26.7638V26.7638ZM38.6417 28.4957C38.5445 29.3931 38.1485 30.2218 37.5274 30.8278C36.9063 31.4338 36.1023 31.7758 35.2649 31.7902C32.5775 31.9361 31.3166 30.0112 31.1159 27.7898C30.9766 26.5834 31.1582 25.3592 31.6395 24.26C31.9746 23.5059 32.5235 22.8865 33.2066 22.4914C33.8898 22.0963 34.6718 21.9459 35.4394 22.0621C36.1692 22.1288 36.861 22.4415 37.417 22.9559C37.9729 23.4703 38.3647 24.1603 38.5369 24.9283C38.6735 25.6277 38.774 26.3347 38.838 27.0462H31.7747C31.6438 29.0605 32.6473 30.6795 34.0695 31.0701C35.8408 31.5408 37.3546 30.7125 37.9043 28.8958C38.0265 28.4298 38.249 28.364 38.6417 28.4957V28.4957ZM31.7747 26.4014H38.0876C38.0483 24.2553 36.8093 22.7021 35.1297 22.6786C33.2275 22.6457 31.8576 24.1423 31.7747 26.4014ZM39.9417 28.5428H40.5613C40.5841 29.0346 40.7323 29.51 40.9893 29.9168C41.2464 30.3237 41.6025 30.6462 42.0184 30.8489C42.5407 31.1025 43.1093 31.2257 43.6818 31.2094C44.2544 31.1931 44.8162 31.0377 45.3254 30.7548C45.6028 30.6199 45.8353 30.3963 45.9913 30.1144C46.1473 29.8325 46.2194 29.5057 46.1979 29.1782C46.2139 28.8623 46.1339 28.5494 45.9701 28.2869C45.8064 28.0245 45.5678 27.8268 45.2905 27.7239C44.6099 27.4509 43.8857 27.3003 43.192 27.0603C42.4702 26.8386 41.7645 26.5601 41.0804 26.2272C39.9636 25.6389 39.8938 23.3469 41.1589 22.6221C41.8068 22.2277 42.5359 22.0147 43.2796 22.0023C44.0234 21.99 44.7582 22.1788 45.417 22.5515C45.816 22.7895 46.1384 23.153 46.341 23.5936C46.5437 24.0342 46.617 24.531 46.5513 25.0177H46.019C46.019 24.9895 45.971 24.9659 45.971 24.9377C45.9056 23.1069 44.4833 22.5421 42.9564 22.7021C42.5006 22.7628 42.0578 22.9077 41.6476 23.1304C41.4011 23.252 41.1957 23.4532 41.0597 23.7061C40.9238 23.959 40.8639 24.2512 40.8885 24.5423C40.8892 24.8336 40.9735 25.1176 41.1297 25.3552C41.2859 25.5928 41.5064 25.7725 41.761 25.8696C42.4329 26.1331 43.1353 26.3025 43.8246 26.5096C44.3786 26.6744 44.9545 26.7826 45.4911 26.9803C45.8699 27.1142 46.202 27.3691 46.4435 27.7111C46.685 28.0532 46.8245 28.4663 46.8436 28.8958C46.9083 29.3664 46.834 29.847 46.6312 30.2694C46.4283 30.6918 46.1073 31.0346 45.7136 31.249C44.2565 32.1385 41.857 31.9032 40.7881 30.7783C40.5172 30.4844 40.303 30.1356 40.1577 29.7519C40.0124 29.3682 39.939 28.9573 39.9417 28.5428ZM54.6965 25.0177H54.1163C54.1163 24.933 54.0857 24.8577 54.077 24.7871C54.0676 24.3179 53.909 23.8664 53.6279 23.5083C53.3467 23.1501 52.96 22.9071 52.5326 22.8198C51.7261 22.5702 50.8657 22.6148 50.0851 22.9469C49.7766 23.0423 49.5049 23.2428 49.3107 23.5185C49.1165 23.7942 49.0101 24.1302 49.0075 24.4765C48.9967 24.8165 49.0949 25.1502 49.2857 25.4211C49.4764 25.6921 49.748 25.8837 50.0546 25.9637C50.9271 26.2555 51.8215 26.4343 52.7071 26.6979C52.9941 26.7722 53.2767 26.8649 53.5535 26.9756C53.9667 27.1351 54.3258 27.4253 54.5837 27.8085C54.8416 28.1916 54.9864 28.6497 54.9991 29.123C55.0118 29.5963 54.8919 30.0627 54.655 30.4613C54.4181 30.8599 54.0753 31.1722 53.6713 31.3572C53.0556 31.6588 52.3883 31.8184 51.7122 31.8257C51.036 31.833 50.3659 31.6878 49.7448 31.3996C49.234 31.1619 48.803 30.7612 48.5097 30.2513C48.2164 29.7414 48.075 29.1468 48.1044 28.5475H48.6716C48.7765 29.0936 49.0032 29.6038 49.3321 30.0341C49.661 30.4643 50.0822 30.8016 50.5592 31.0167C51.0362 31.2318 51.5545 31.3182 52.0694 31.2685C52.5843 31.2187 53.0802 31.0344 53.5142 30.7313C53.7786 30.5831 53.998 30.3563 54.1464 30.0777C54.2949 29.799 54.3662 29.4803 54.3518 29.1593C54.365 28.8433 54.2822 28.5312 54.1161 28.2704C53.95 28.0097 53.7096 27.8145 53.4313 27.7145C52.7507 27.4415 52.0265 27.2956 51.3328 27.0556C50.607 26.8373 49.8968 26.562 49.2082 26.2319C48.1175 25.6531 48.0302 23.3799 49.2736 22.6551C49.9295 22.2442 50.6728 22.0234 51.4312 22.0144C52.1896 22.0053 52.9373 22.2082 53.6015 22.6033C53.9813 22.8479 54.287 23.2064 54.4814 23.635C54.6759 24.0637 54.7506 24.5441 54.6965 25.0177V25.0177ZM16.6927 31.5596C16.4643 31.6529 16.2121 31.6527 15.9838 31.5591C15.7555 31.4654 15.567 31.2848 15.4537 31.0513C14.7426 29.903 13.9573 28.8064 13.2026 27.6862L12.8754 27.2156C11.9766 28.5146 11.0779 29.7618 10.2577 31.056C10.1509 31.2791 9.97246 31.4528 9.75575 31.5445C9.53905 31.6363 9.29881 31.64 9.07978 31.5549L12.4522 26.6744L9.31537 22.2644C9.54116 22.1765 9.78818 22.1753 10.0147 22.261C10.2412 22.3468 10.4334 22.5142 10.5587 22.7351C11.2873 23.8834 12.0944 24.98 12.8972 26.1425C13.7043 24.9895 14.5027 23.8882 15.2487 22.7492C15.3561 22.5297 15.5346 22.3605 15.7502 22.2737C15.9658 22.1869 16.2034 22.1886 16.4179 22.2786L15.2007 24.0199C14.6553 24.7965 14.1187 25.5778 13.5516 26.3355C13.5059 26.3796 13.4693 26.4337 13.4443 26.4941C13.4193 26.5545 13.4063 26.6199 13.4063 26.6861C13.4063 26.7523 13.4193 26.8177 13.4443 26.8781C13.4693 26.9386 13.5059 26.9926 13.5516 27.0367C14.5943 28.5287 15.6282 30.0253 16.6927 31.5596V31.5596ZM31.0112 22.2174V22.8763C30.57 22.8451 30.1276 22.914 29.7125 23.0786C29.2975 23.2433 28.9191 23.5 28.6017 23.8321C28.2844 24.1643 28.0351 24.5646 27.87 25.0071C27.7049 25.4497 27.6276 25.9246 27.6432 26.4014V31.5784H27.0193V22.255H27.6301V24.1658C28.3849 22.7727 29.5497 22.255 31.0112 22.2174V22.2174ZM1 26.6132C1.09162 26.1425 1.14833 25.6295 1.27485 25.1495C2.0296 22.255 5.10533 21.0502 7.22125 22.8433C8.46027 23.8929 8.77002 25.3801 8.70895 27.0556H1.72858C1.61515 30.0489 3.61764 31.8561 6.17856 30.9337C6.59398 30.7734 6.96586 30.504 7.26062 30.1498C7.55539 29.7957 7.76376 29.3679 7.86694 28.9052C8.00218 28.4346 8.22032 28.3545 8.63478 28.491C8.56651 29.064 8.37872 29.6128 8.08553 30.0962C7.79234 30.5796 7.40138 30.985 6.94204 31.2819C6.1831 31.7296 5.31236 31.907 4.45434 31.7887C3.59632 31.6703 2.79496 31.2623 2.16485 30.623C1.54148 29.8669 1.16456 28.9116 1.09162 27.9027C1.09162 27.7427 1.0349 27.5827 1.00436 27.4321C1.00145 27.1528 1 26.8799 1 26.6132V26.6132ZM1.7373 26.4108H8.05017C8.01091 24.2411 6.74135 22.7021 5.04861 22.688C3.16391 22.6598 1.81583 24.1658 1.73294 26.4014L1.7373 26.4108Z" stroke="white" stroke-width="0.8" mask="url(#path-1-outside-1_5_165)"/>
</svg>
