<svg width="64" height="50" viewBox="0 0 64 50" fill="none" xmlns="http://www.w3.org/2000/svg">
<rect y="17" width="64" height="21" rx="2" fill="white"/>
<path d="M21.7529 35V22.255H22.3942V24.26C22.47 24.1711 22.5399 24.0768 22.6036 23.9776C22.8657 23.3907 23.2774 22.8967 23.7904 22.5532C24.3035 22.2098 24.8967 22.0313 25.5005 22.0385C26.962 21.9915 28.1487 22.5751 28.8467 23.9776C29.2908 24.8488 29.5353 25.8221 29.5596 26.8161C29.5838 27.8101 29.3873 28.7959 28.9863 29.6912C28.3363 31.2631 26.7308 32.0444 25.0118 31.7573C24.4769 31.7081 23.9619 31.5153 23.5139 31.1963C23.0658 30.8773 22.6988 30.4424 22.4466 29.9312V35H21.7529ZM22.3942 26.7638C22.4509 27.385 22.4727 27.8274 22.5382 28.2604C22.7912 29.9641 23.7248 30.976 25.1907 31.1596C25.879 31.2816 26.5853 31.1424 27.1891 30.7657C27.7929 30.3889 28.2569 29.7979 28.502 29.0934C28.7837 28.3688 28.9193 27.5879 28.8997 26.8024C28.8802 26.0169 28.706 25.2449 28.3886 24.5376C28.1269 23.9062 27.6819 23.3838 27.1208 23.0493C26.5596 22.7148 25.9128 22.5863 25.278 22.6833C24.682 22.7299 24.1142 22.9757 23.6537 23.3864C23.1932 23.7972 22.8627 24.3526 22.7083 24.9753C22.5717 25.5644 22.4668 26.1616 22.3942 26.7638V26.7638ZM42.6417 28.4957C42.5445 29.3931 42.1485 30.2218 41.5274 30.8278C40.9063 31.4338 40.1023 31.7758 39.2649 31.7902C36.5775 31.9361 35.3166 30.0112 35.1159 27.7898C34.9766 26.5834 35.1582 25.3592 35.6395 24.26C35.9746 23.5059 36.5235 22.8865 37.2066 22.4914C37.8898 22.0963 38.6718 21.9459 39.4394 22.0621C40.1692 22.1288 40.861 22.4415 41.417 22.9559C41.9729 23.4703 42.3647 24.1603 42.5369 24.9283C42.6735 25.6277 42.774 26.3347 42.838 27.0462H35.7747C35.6438 29.0605 36.6473 30.6795 38.0695 31.0701C39.8408 31.5408 41.3546 30.7125 41.9043 28.8958C42.0265 28.4298 42.249 28.364 42.6417 28.4957V28.4957ZM35.7747 26.4014H42.0876C42.0483 24.2553 40.8093 22.7021 39.1297 22.6786C37.2275 22.6457 35.8576 24.1423 35.7747 26.4014ZM43.9417 28.5428H44.5613C44.5841 29.0346 44.7323 29.51 44.9893 29.9168C45.2464 30.3237 45.6025 30.6462 46.0184 30.8489C46.5407 31.1025 47.1093 31.2257 47.6818 31.2094C48.2544 31.1931 48.8162 31.0377 49.3254 30.7548C49.6028 30.6199 49.8353 30.3963 49.9913 30.1144C50.1473 29.8325 50.2194 29.5057 50.1979 29.1782C50.2139 28.8623 50.1339 28.5494 49.9701 28.2869C49.8064 28.0245 49.5678 27.8268 49.2905 27.7239C48.6099 27.4509 47.8857 27.3003 47.192 27.0603C46.4702 26.8386 45.7645 26.5601 45.0804 26.2272C43.9636 25.6389 43.8938 23.3469 45.1589 22.6221C45.8068 22.2277 46.5359 22.0147 47.2796 22.0023C48.0234 21.99 48.7582 22.1788 49.417 22.5515C49.816 22.7895 50.1384 23.153 50.341 23.5936C50.5437 24.0342 50.617 24.531 50.5513 25.0177H50.019C50.019 24.9895 49.971 24.9659 49.971 24.9377C49.9056 23.1069 48.4833 22.5421 46.9564 22.7021C46.5006 22.7628 46.0578 22.9077 45.6476 23.1304C45.4011 23.252 45.1957 23.4532 45.0597 23.7061C44.9238 23.959 44.8639 24.2512 44.8885 24.5423C44.8892 24.8336 44.9735 25.1176 45.1297 25.3552C45.2859 25.5928 45.5064 25.7725 45.761 25.8696C46.4329 26.1331 47.1353 26.3025 47.8246 26.5096C48.3786 26.6744 48.9545 26.7826 49.4911 26.9803C49.8699 27.1142 50.202 27.3691 50.4435 27.7111C50.685 28.0532 50.8245 28.4663 50.8436 28.8958C50.9083 29.3664 50.834 29.847 50.6312 30.2694C50.4283 30.6918 50.1073 31.0346 49.7136 31.249C48.2565 32.1385 45.857 31.9032 44.7881 30.7783C44.5172 30.4844 44.303 30.1356 44.1577 29.7519C44.0124 29.3682 43.939 28.9573 43.9417 28.5428ZM58.6965 25.0177H58.1163C58.1163 24.933 58.0857 24.8577 58.077 24.7871C58.0676 24.3179 57.909 23.8664 57.6279 23.5083C57.3467 23.1501 56.96 22.9071 56.5326 22.8198C55.7261 22.5702 54.8657 22.6148 54.0851 22.9469C53.7766 23.0423 53.5049 23.2428 53.3107 23.5185C53.1165 23.7942 53.0101 24.1302 53.0075 24.4765C52.9967 24.8165 53.0949 25.1502 53.2857 25.4211C53.4764 25.6921 53.748 25.8837 54.0546 25.9637C54.9271 26.2555 55.8215 26.4343 56.7071 26.6979C56.9941 26.7722 57.2767 26.8649 57.5535 26.9756C57.9667 27.1351 58.3258 27.4253 58.5837 27.8085C58.8416 28.1916 58.9864 28.6497 58.9991 29.123C59.0118 29.5963 58.8919 30.0627 58.655 30.4613C58.4181 30.8599 58.0753 31.1722 57.6713 31.3572C57.0556 31.6588 56.3883 31.8184 55.7122 31.8257C55.036 31.833 54.3659 31.6878 53.7448 31.3996C53.234 31.1619 52.803 30.7612 52.5097 30.2513C52.2164 29.7414 52.075 29.1468 52.1044 28.5475H52.6716C52.7765 29.0936 53.0032 29.6038 53.3321 30.0341C53.661 30.4643 54.0822 30.8016 54.5592 31.0167C55.0362 31.2318 55.5545 31.3182 56.0694 31.2685C56.5843 31.2187 57.0802 31.0344 57.5142 30.7313C57.7786 30.5831 57.998 30.3563 58.1464 30.0777C58.2949 29.799 58.3662 29.4803 58.3518 29.1593C58.365 28.8433 58.2822 28.5312 58.1161 28.2704C57.95 28.0097 57.7096 27.8145 57.4313 27.7145C56.7507 27.4415 56.0265 27.2956 55.3328 27.0556C54.607 26.8373 53.8968 26.562 53.2082 26.2319C52.1175 25.6531 52.0302 23.3799 53.2736 22.6551C53.9295 22.2442 54.6728 22.0234 55.4312 22.0144C56.1896 22.0053 56.9373 22.2082 57.6015 22.6033C57.9813 22.8479 58.287 23.2064 58.4814 23.635C58.6759 24.0637 58.7506 24.5441 58.6965 25.0177V25.0177ZM20.6927 31.5596C20.4643 31.6529 20.2121 31.6527 19.9838 31.5591C19.7555 31.4654 19.567 31.2848 19.4537 31.0513C18.7426 29.903 17.9573 28.8064 17.2026 27.6862L16.8754 27.2156C15.9766 28.5146 15.0779 29.7618 14.2577 31.056C14.1509 31.2791 13.9725 31.4528 13.7558 31.5445C13.5391 31.6363 13.2988 31.64 13.0798 31.5549L16.4522 26.6744L13.3154 22.2644C13.5412 22.1765 13.7882 22.1753 14.0147 22.261C14.2412 22.3468 14.4334 22.5142 14.5587 22.7351C15.2873 23.8834 16.0944 24.98 16.8972 26.1425C17.7043 24.9895 18.5027 23.8882 19.2487 22.7492C19.3561 22.5297 19.5346 22.3605 19.7502 22.2737C19.9658 22.1869 20.2034 22.1886 20.4179 22.2786L19.2007 24.0199C18.6553 24.7965 18.1187 25.5778 17.5516 26.3355C17.5059 26.3796 17.4693 26.4337 17.4443 26.4941C17.4193 26.5545 17.4063 26.6199 17.4063 26.6861C17.4063 26.7523 17.4193 26.8177 17.4443 26.8781C17.4693 26.9386 17.5059 26.9926 17.5516 27.0367C18.5943 28.5287 19.6282 30.0253 20.6927 31.5596V31.5596ZM35.0112 22.2174V22.8763C34.57 22.8451 34.1276 22.914 33.7125 23.0786C33.2975 23.2433 32.9191 23.5 32.6017 23.8321C32.2844 24.1643 32.0351 24.5646 31.87 25.0071C31.7049 25.4497 31.6276 25.9246 31.6432 26.4014V31.5784H31.0193V22.255H31.6301V24.1658C32.3849 22.7727 33.5497 22.255 35.0112 22.2174V22.2174ZM5 26.6132C5.09162 26.1425 5.14833 25.6295 5.27485 25.1495C6.0296 22.255 9.10533 21.0502 11.2213 22.8433C12.4603 23.8929 12.77 25.3801 12.7089 27.0556H5.72858C5.61515 30.0489 7.61764 31.8561 10.1786 30.9337C10.594 30.7734 10.9659 30.504 11.2606 30.1498C11.5554 29.7957 11.7638 29.3679 11.8669 28.9052C12.0022 28.4346 12.2203 28.3545 12.6348 28.491C12.5665 29.064 12.3787 29.6128 12.0855 30.0962C11.7923 30.5796 11.4014 30.985 10.942 31.2819C10.1831 31.7296 9.31236 31.907 8.45434 31.7887C7.59632 31.6703 6.79496 31.2623 6.16485 30.623C5.54148 29.8669 5.16456 28.9116 5.09162 27.9027C5.09162 27.7427 5.0349 27.5827 5.00436 27.4321C5.00145 27.1528 5 26.8799 5 26.6132V26.6132ZM5.7373 26.4108H12.0502C12.0109 24.2411 10.7414 22.7021 9.04861 22.688C7.16391 22.6598 5.81583 24.1658 5.73294 26.4014L5.7373 26.4108Z" fill="black"/>
</svg>
