<svg width="50" height="50" viewBox="0 0 50 50" fill="none" xmlns="http://www.w3.org/2000/svg">
<path d="M16.3333 50C18.5435 50 20.6631 49.122 22.2259 47.5592C23.7887 45.9964 24.6667 43.8768 24.6667 41.6667V33.3333H16.3333C14.1232 33.3333 12.0036 34.2113 10.4408 35.7741C8.87797 37.3369 8 39.4565 8 41.6667C8 43.8768 8.87797 45.9964 10.4408 47.5592C12.0036 49.122 14.1232 50 16.3333 50V50Z" fill="#0ACF83"/>
<path d="M8 25C8 22.7899 8.87797 20.6703 10.4408 19.1074C12.0036 17.5446 14.1232 16.6667 16.3333 16.6667H24.6667V33.3333H16.3333C14.1232 33.3333 12.0036 32.4554 10.4408 30.8926C8.87797 29.3298 8 27.2101 8 25V25Z" fill="#A259FF"/>
<path d="M8 8.33333C8 6.12432 8.87708 4.00569 10.4385 2.44308C11.9999 0.880461 14.1178 0.00172579 16.3268 0L24.6602 0V16.6667H16.3333C14.1232 16.6667 12.0036 15.7887 10.4408 14.2259C8.87797 12.6631 8 10.5435 8 8.33333V8.33333Z" fill="#F24E1E"/>
<path d="M24.6666 0H33C35.2101 0 37.3297 0.877974 38.8925 2.44078C40.4553 4.00358 41.3333 6.1232 41.3333 8.33333C41.3333 10.5435 40.4553 12.6631 38.8925 14.2259C37.3297 15.7887 35.2101 16.6667 33 16.6667H24.6666V0Z" fill="#FF7262"/>
<path d="M41.3333 25C41.3333 27.2101 40.4553 29.3298 38.8925 30.8926C37.3297 32.4554 35.2101 33.3333 33 33.3333C30.7898 33.3333 28.6702 32.4554 27.1074 30.8926C25.5446 29.3298 24.6666 27.2101 24.6666 25C24.6666 22.7899 25.5446 20.6703 27.1074 19.1074C28.6702 17.5446 30.7898 16.6667 33 16.6667C35.2101 16.6667 37.3297 17.5446 38.8925 19.1074C40.4553 20.6703 41.3333 22.7899 41.3333 25V25Z" fill="#1ABCFE"/>
</svg>
