<svg width="50" height="50" viewBox="0 0 50 50" fill="none" xmlns="http://www.w3.org/2000/svg">
<path d="M49.0559 22.7812L27.2272 0.943654C26.9283 0.644488 26.5735 0.407169 26.1829 0.245254C25.7923 0.0833383 25.3736 0 24.9508 0C24.528 0 24.1093 0.0833383 23.7187 0.245254C23.3281 0.407169 22.9732 0.644488 22.6743 0.943654L18.1433 5.47654L23.893 11.2286C25.2305 10.7597 26.7616 11.0801 27.8272 12.1461C28.3345 12.6545 28.6886 13.2953 28.8491 13.9954C29.0096 14.6955 28.9701 15.4267 28.735 16.1054L34.2769 21.6496C35.6175 21.1869 37.1643 21.4854 38.2346 22.5593C38.5903 22.9153 38.8725 23.338 39.0651 23.8031C39.2576 24.2682 39.3566 24.7667 39.3565 25.2702C39.3565 25.7736 39.2573 26.2721 39.0646 26.7372C38.872 27.2023 38.5897 27.6248 38.2338 27.9808C37.8779 28.3367 37.4554 28.619 36.9905 28.8116C36.5255 29.0042 36.0272 29.1033 35.524 29.1032C35.0207 29.1031 34.5225 29.0039 34.0576 28.8112C33.5927 28.6185 33.1703 28.336 32.8145 27.98C31.6895 26.8546 31.4114 25.1977 31.9802 23.8113L26.8116 18.6407V32.2472C27.1868 32.4329 27.5297 32.6778 27.8272 32.9724C28.183 33.3283 28.4652 33.7509 28.6578 34.2159C28.8503 34.681 28.9494 35.1794 28.9494 35.6828C28.9494 36.1861 28.8503 36.6846 28.6578 37.1496C28.4652 37.6146 28.183 38.0372 27.8272 38.3931C27.4714 38.749 27.0491 39.0314 26.5842 39.224C26.1193 39.4166 25.6211 39.5158 25.118 39.5158C24.6148 39.5158 24.1166 39.4166 23.6517 39.224C23.1869 39.0314 22.7645 38.749 22.4087 38.3931C22.0525 38.0374 21.7699 37.615 21.5771 37.1499C21.3843 36.6848 21.285 36.1863 21.285 35.6828C21.285 35.1793 21.3843 34.6807 21.5771 34.2157C21.7699 33.7506 22.0525 33.3281 22.4087 32.9724C22.779 32.6035 23.1899 32.3237 23.6633 32.1362V18.4031C23.2071 18.2155 22.779 17.9389 22.4087 17.5668C21.8707 17.0293 21.5049 16.3436 21.358 15.5973C21.2111 14.851 21.2897 14.0778 21.5837 13.3763L15.9121 7.70547L0.944052 22.664C0.644774 22.963 0.407353 23.3182 0.245366 23.7091C0.0833777 24.1 0 24.519 0 24.9422C0 25.3653 0.0833777 25.7843 0.245366 26.1753C0.407353 26.5662 0.644774 26.9213 0.944052 27.2203L22.7743 49.0563C23.0732 49.3555 23.4281 49.5928 23.8187 49.7547C24.2093 49.9167 24.628 50 25.0508 50C25.4736 50 25.8922 49.9167 26.2829 49.7547C26.6735 49.5928 27.0283 49.3555 27.3272 49.0563L49.0559 27.3532C49.3552 27.0541 49.5926 26.699 49.7546 26.3081C49.9166 25.9172 50 25.4982 50 25.075C50 24.6519 49.9166 24.2328 49.7546 23.8419C49.5926 23.451 49.3552 23.0959 49.0559 22.7969" fill="#F03C2E"/>
</svg>
