<svg width="50" height="50" viewBox="0 0 50 50" fill="none" xmlns="http://www.w3.org/2000/svg">
<path d="M40.5469 50H9.76563C8.50329 49.9949 7.29412 49.4911 6.4015 48.5985C5.50888 47.7059 5.00514 46.4967 5 45.2344V4.76563C5.00514 3.50329 5.50888 2.29412 6.4015 1.4015C7.29412 0.508884 8.50329 0.00514197 9.76563 0L40.5469 0C41.8092 0.00514197 43.0184 0.508884 43.911 1.4015C44.8036 2.29412 45.3074 3.50329 45.3125 4.76563V45.2344C45.3074 46.4967 44.8036 47.7059 43.911 48.5985C43.0184 49.4911 41.8092 49.9949 40.5469 50V50Z" fill="#6762A6"/>
<path d="M30.2734 43.1152V23.2617C30.2734 23.2617 31.5625 18.5059 14.3555 25.2148C14.3359 25.3906 14.3359 6.83594 14.3359 6.83594L19.9414 6.80664V18.5254C19.9414 18.5254 35.6641 12.3242 35.6641 23.2129V42.998H30.2441L30.2734 43.1152ZM33.4766 13.9551H27.6172C29.7656 11.3184 31.7188 6.82617 31.7188 6.82617H37.8711C37.8711 6.82617 36.8164 9.75586 33.5742 13.9551H33.4766ZM14.4336 43.0762V31.7773L20.0977 37.4414L14.4336 43.1055V43.0762Z" fill="white"/>
</svg>
