<svg width="50" height="50" viewBox="0 0 50 50" fill="none" xmlns="http://www.w3.org/2000/svg">
<path d="M10.2238 45.9842L7 9.82637H42.4232L39.1962 45.9786L24.6899 50L10.2238 45.9842Z" fill="#E44D26"/>
<path d="M24.7117 46.9262L36.4331 43.6763L39.1911 12.7832H24.7117V46.9262Z" fill="#F16529"/>
<path d="M24.7116 26.1936H18.8433L18.4384 21.652H24.7116V17.2174H13.5918L13.6976 18.4074L14.7878 30.6278H24.7116V26.1936ZM24.7116 37.7102L24.692 37.7154L19.7535 36.3815L19.4377 32.8451H14.9858L15.6071 39.8081L24.6912 42.33L24.7116 42.324V37.7102Z" fill="#EBEBEB"/>
<path d="M10.2959 0H12.5493V2.22692H14.6111V0H16.8648V6.7425H14.6111V4.48471H12.5497V6.7425H10.2959V0V0ZM19.8281 2.23614H17.844V0H24.0667V2.23614H22.0818V6.7425H19.8281V2.23614V2.23614ZM25.0543 0H27.4039L28.8496 2.36921L30.2937 0H32.6445V6.7425H30.3995V3.40051L28.8496 5.79778H28.8103L27.2592 3.40051V6.7425H25.0539V0H25.0543ZM33.7664 0H36.0206V4.51397H39.1898V6.7429H33.7664V0V0Z" fill="black"/>
<path d="M24.6963 26.1936V30.6278H30.157L29.6423 36.3791L24.6963 37.7142V42.3276L33.7876 39.8081L33.8541 39.0586L34.8962 27.384L35.0044 26.1936H33.8092H24.6963ZM24.6963 17.2174V21.652H35.4081L35.4966 20.6552L35.699 18.4074L35.8053 17.2174H24.6963Z" fill="white"/>
</svg>
