<svg width="50" height="50" viewBox="0 0 50 50" fill="none" xmlns="http://www.w3.org/2000/svg">
<path d="M2.0835 3H47.9171V47.5836H2.0835V3Z" fill="#261300"/>
<path d="M0 1V49.75H50V1H0ZM2.08359 3.08359H47.9172V47.6672H2.08359V3.08359ZM17.3539 28.6039L15.7078 34.8539C15.6664 35.0203 15.6039 35.0625 15.3953 35.0625H12.3328C12.1242 35.0625 12.0828 35 12.1242 34.75L18.0406 14.0414C18.1445 13.6664 18.207 13.3328 18.2492 12.3125C18.2492 12.1664 18.3117 12.1039 18.4156 12.1039H22.7906C22.9367 12.1039 22.9992 12.1453 23.0406 12.3125L29.6656 34.7914C29.707 34.9578 29.6656 35.0625 29.4992 35.0625H26.0406C25.8742 35.0625 25.7695 35.0211 25.7281 34.875L23.9992 28.6039H17.3539ZM23.1453 25.2289L20.6664 15.4375H20.625C20.1875 17.875 19.0836 22 18.2086 25.2289H23.1453ZM32.5203 13.6453C32.5203 12.3117 33.4578 11.5203 34.6453 11.5203C35.9164 11.5203 36.7703 12.3742 36.7703 13.6453C36.7703 15.0203 35.8742 15.7703 34.6039 15.7703C33.3953 15.7703 32.5203 15.0203 32.5203 13.6453V13.6453ZM32.7703 18.3742C32.7703 18.2078 32.8328 18.1242 33.0203 18.1242H36.2914C36.4578 18.1242 36.5414 18.1867 36.5414 18.3742V34.8117C36.5414 34.9781 36.5 35.0617 36.2914 35.0617H33.0625C32.8539 35.0617 32.7914 34.9578 32.7914 34.7906V18.375L32.7703 18.3742Z" fill="#FF7C00"/>
</svg>
