<svg width="50" height="50" viewBox="0 0 50 50" fill="none" xmlns="http://www.w3.org/2000/svg">
<path d="M0 0H50V50.0004H0V0Z" fill="#F0DB4F"/>
<path d="M45.9082 38.0751C45.5419 35.7941 44.0545 33.8781 39.6486 32.0916C38.118 31.3882 36.4117 30.8845 35.9033 29.7246C35.7228 29.0496 35.6988 28.6694 35.813 28.2608C36.1409 26.9347 37.7238 26.5214 38.9784 26.9016C39.7864 27.1724 40.5513 27.7951 41.0126 28.7884C43.1702 27.3913 43.1658 27.4005 44.6724 26.4403C44.1208 25.5851 43.8264 25.1905 43.4654 24.8247C42.1677 23.3752 40.3995 22.6287 37.5716 22.6858L36.0986 22.8763C34.6871 23.233 33.3419 23.9739 32.553 24.9672C30.1861 27.6529 30.8611 32.3532 33.7413 34.2875C36.5787 36.4172 40.747 36.9017 41.2794 38.8931C41.7974 41.3312 39.4876 42.1204 37.1918 41.84C35.4999 41.4881 34.5589 40.6282 33.5416 39.0645C31.6691 40.1481 31.6691 40.1481 29.744 41.2553C30.2005 42.2534 30.6802 42.7051 31.4455 43.5699C35.0673 47.2437 44.1308 47.0631 45.7564 41.5025C45.8223 41.3116 46.26 40.0383 45.9082 38.0751V38.0751ZM27.1817 22.9802H22.505L22.4858 35.0712C22.4858 37.6426 22.6189 39.9999 22.2007 40.7225C21.5165 42.1436 19.7435 41.9674 18.9355 41.6918C18.1131 41.2876 17.6949 40.7129 17.2104 39.9005C17.0774 39.6672 16.9776 39.4867 16.944 39.4727L13.1416 41.8013C13.7739 43.099 14.7053 44.2253 15.8983 44.957C17.6805 46.0266 20.0758 46.3546 22.5809 45.7794C24.2113 45.3045 25.618 44.3208 26.3546 42.8234C27.4194 40.8603 27.1909 38.4841 27.1813 35.856C27.2053 31.5683 27.1817 27.2814 27.1817 22.9802V22.9802Z" fill="#323330"/>
</svg>
