<svg width="50" height="50" viewBox="0 0 50 50" fill="none" xmlns="http://www.w3.org/2000/svg">
<path fill-rule="evenodd" clip-rule="evenodd" d="M34.1499 39.8457C34.2193 39.7122 34.2859 39.5943 34.3426 39.4723C34.3783 39.3942 34.4333 39.3786 34.511 39.3806C34.9764 39.3938 35.4418 39.4082 35.9077 39.4127C36.3033 39.4168 36.6997 39.4094 37.0957 39.4049C37.5418 39.3995 37.9879 39.3761 38.4336 39.3889C39.0272 39.4061 39.6056 39.5224 40.1425 39.7865C40.7837 40.1024 41.2689 40.5834 41.5995 41.2173C41.8074 41.6192 41.9372 42.0569 41.982 42.5072C42.0526 43.1677 42.0062 43.8131 41.7967 44.4448C41.5371 45.2278 41.0442 45.8271 40.3594 46.2761C39.8323 46.6216 39.2544 46.8258 38.6349 46.9424C37.9793 47.0661 37.3216 47.0262 36.6639 47.0283C35.9426 47.0312 35.2216 47.0156 34.5003 47.0073C34.3742 47.0061 34.3561 46.9823 34.3894 46.8619L34.4202 46.751C34.4904 46.53 34.5282 46.5201 34.7525 46.4832C34.9115 46.4581 35.0636 46.4004 35.1991 46.3135C35.2746 46.2634 35.3059 46.1328 35.3354 46.0321C35.3609 45.9442 35.3621 45.8477 35.363 45.7549C35.3732 44.3479 35.3839 42.9414 35.3897 41.5352C35.3912 41.1796 35.3823 40.824 35.363 40.4688C35.349 40.2203 35.2163 40.0502 34.9205 39.9915C34.6905 39.9459 34.4588 39.9106 34.2275 39.8699L34.1499 39.8457V39.8457ZM40.7537 43.2523C40.7225 42.9722 40.7073 42.6895 40.6572 42.4135C40.5373 41.7509 40.2472 41.1737 39.7379 40.7215C38.9142 39.9907 37.9226 39.8781 36.8833 39.9652C36.6467 39.9849 36.5957 40.0658 36.592 40.309C36.5863 40.6541 36.5805 40.9992 36.5801 41.3442C36.5785 42.4386 36.5785 43.5329 36.5801 44.6272C36.5805 44.9386 36.5838 45.25 36.5929 45.5605C36.6027 45.8785 36.7181 46.1476 37.0295 46.2708C37.5204 46.4651 38.0368 46.4881 38.5519 46.4088C39.3747 46.2827 39.9502 45.8033 40.3364 45.0849C40.642 44.5147 40.7283 43.8923 40.7537 43.2523V43.2523ZM42.7539 46.9786C42.744 46.8081 42.8138 46.6672 42.9001 46.5378C42.9235 46.5029 43.004 46.5045 43.0595 46.4934L43.5303 46.4002C43.6966 46.3649 43.7841 46.2531 43.8075 46.0901C43.8231 45.9824 43.8379 45.8736 43.8392 45.7647C43.8503 44.9033 43.8584 44.0419 43.8634 43.1804C43.8675 42.3178 43.8642 41.4551 43.8642 40.5925L43.8605 40.4277C43.8437 40.1505 43.7098 40.0067 43.4345 39.966L42.8377 39.8752C42.7641 39.8654 42.7374 39.8301 42.7641 39.7647C42.8101 39.6534 42.8541 39.538 42.919 39.4377C42.9432 39.4008 43.025 39.3864 43.08 39.3876C43.3651 39.3917 43.6502 39.4131 43.9353 39.4127L46.4169 39.3979C46.895 39.3975 47.3568 39.4809 47.7856 39.7097C48.2576 39.9611 48.5217 40.3501 48.5973 40.88C48.6762 41.4366 48.5074 41.9058 48.1007 42.2783C47.9335 42.432 47.717 42.5322 47.5231 42.6571L47.4599 42.6965C47.6398 42.7627 47.8111 42.8198 47.9779 42.888C48.4659 43.088 48.8541 43.4006 49.0595 43.8997C49.2217 44.2937 49.2217 44.7045 49.1256 45.1128C48.9761 45.752 48.555 46.1771 48.0074 46.4988C47.4935 46.8007 46.9373 46.9765 46.345 47.0061C45.7986 47.0336 45.2498 47.0234 44.7022 47.0295L44.3851 47.0312C43.8574 47.019 43.3296 47.0059 42.8019 46.9917L42.7539 46.9786V46.9786ZM45.0284 44.4773H45.0337C45.0337 44.7476 45.03 45.0179 45.035 45.2882C45.0383 45.4632 45.0321 45.6431 45.0699 45.8115C45.1266 46.0634 45.2416 46.2905 45.5242 46.3628C45.902 46.4621 46.2967 46.4795 46.6818 46.4138C47.1653 46.3295 47.5511 46.0872 47.7626 45.6267C47.9195 45.2845 47.9429 44.9218 47.8891 44.5512C47.8177 44.0632 47.5584 43.7091 47.1275 43.477C46.8449 43.3246 46.5434 43.2314 46.2222 43.2191C45.8623 43.2055 45.502 43.2047 45.1422 43.1936C45.0411 43.1907 45.0272 43.2421 45.0276 43.325C45.0296 43.7087 45.0284 44.0928 45.0284 44.4773V44.4773ZM45.7945 42.639C45.9913 42.6292 46.2139 42.6263 46.4354 42.6041C46.8593 42.5618 47.1579 42.3486 47.3136 41.9431C47.3929 41.7373 47.3896 41.5254 47.3917 41.3114C47.3978 40.7539 47.0725 40.2971 46.543 40.1082C46.1342 39.9623 45.7128 39.9599 45.2888 39.9714C45.1171 39.9759 45.0403 40.0511 45.0378 40.224L45.0124 42.4788C45.0111 42.5684 45.0498 42.607 45.1368 42.6099L45.7945 42.639V42.639Z" fill="#94795D"/>
<path fill-rule="evenodd" clip-rule="evenodd" d="M2.63583 46.5452L2.60585 46.933C2.32651 46.933 2.06894 46.9309 1.81138 46.9338C1.32624 46.9387 0.841098 46.9465 0.355546 46.9535L0.308716 46.9564C0.239293 46.9482 0.113181 46.9482 0.109895 46.9277C0.0893552 46.8122 0.0959278 46.691 0.101268 46.5715C0.101679 46.5579 0.14892 46.5407 0.176442 46.5341L0.553957 46.4499C0.789339 46.3887 0.872318 46.2872 0.883409 46.044C0.896144 45.77 0.908878 45.4956 0.910111 45.2216C0.913808 44.5471 0.9097 43.8734 0.912575 43.1989C0.912986 43.0412 0.858351 42.9237 0.711289 42.8596C0.536538 42.782 0.360561 42.7073 0.183426 42.6353C0.0996249 42.6016 -0.00923417 42.5832 0.000624752 42.4706C0.0104837 42.356 0.116056 42.326 0.215467 42.3034C0.627077 42.2093 1.0391 42.1177 1.44948 42.0175C1.58175 41.985 1.70827 41.9304 1.86643 41.8754C1.87464 41.9608 1.88984 42.0421 1.8882 42.1235L1.86396 42.51C1.86355 42.5536 1.88614 42.6119 1.9186 42.6361C1.93831 42.6513 2.00445 42.6238 2.03731 42.5984C2.38813 42.3313 2.75948 42.1009 3.183 41.9666C3.83903 41.7583 4.40222 41.9514 4.79658 42.517C4.93543 42.7162 4.93584 42.7163 5.1285 42.577C5.45918 42.3367 5.80507 42.1247 6.19203 41.985C7.04154 41.6782 7.85778 42.0676 8.15313 42.9233C8.26076 43.2338 8.30184 43.5547 8.30102 43.8825L8.29321 46.0588C8.2928 46.2383 8.35237 46.3406 8.52325 46.3965C8.71509 46.4594 8.91391 46.5025 9.12999 46.5592L9.07987 46.9334C8.83422 46.9334 8.60829 46.9318 8.38235 46.9338C7.83025 46.9387 7.27815 46.9416 6.72646 46.9544C6.63034 46.9568 6.60528 46.933 6.60035 46.843C6.58433 46.5551 6.58187 46.5555 6.85299 46.4906L6.94418 46.4672C7.20914 46.3949 7.29746 46.3135 7.29951 46.0449C7.30568 45.2734 7.3217 44.4999 7.28267 43.7301C7.242 42.9315 6.60816 42.5063 5.83423 42.7109C5.58445 42.7793 5.3492 42.8926 5.14 43.0453C5.06811 43.0966 5.05456 43.1558 5.06031 43.2458C5.08208 43.5859 5.09563 43.9264 5.09851 44.267C5.10344 44.863 5.09605 45.4591 5.09851 46.0555C5.09933 46.2971 5.1819 46.3895 5.42057 46.4454L5.77508 46.5271L5.8408 46.5419C5.84573 46.6553 5.85025 46.7687 5.84491 46.8821C5.84163 46.9531 5.78658 46.9593 5.72496 46.9581C5.38031 46.9494 5.03525 46.9379 4.6906 46.9387C4.27118 46.9396 3.85218 46.9515 3.43317 46.9589H3.33458C3.33458 46.8385 3.32883 46.7235 3.33869 46.6089C3.34075 46.5814 3.38922 46.5427 3.42249 46.5341L3.83575 46.4466C4.01115 46.4035 4.09495 46.3135 4.10481 46.1352C4.15164 45.3096 4.18533 44.4835 4.10769 43.6582C4.08877 43.4952 4.04354 43.3364 3.97377 43.1878C3.76221 42.7204 3.28611 42.5252 2.73689 42.6657C2.47604 42.7323 2.24065 42.8518 2.01801 43.0026C1.96945 43.0325 1.92957 43.0745 1.90233 43.1246C1.87509 43.1747 1.86144 43.2311 1.86273 43.2881C1.86273 44.1117 1.8656 44.9353 1.86807 45.7585L1.87259 46.0761C1.87752 46.2975 1.97159 46.4142 2.19136 46.4618C2.33267 46.4939 2.47563 46.5156 2.63583 46.5452V46.5452Z" fill="#50382B"/>
<path fill-rule="evenodd" clip-rule="evenodd" d="M27.4712 41.9596C27.5349 42.2693 27.5336 42.5478 27.3061 42.759C27.0801 42.9689 26.7942 42.8982 26.5153 42.8514C26.5412 42.9984 26.5699 43.1233 26.5839 43.2499C26.6854 44.1901 26.2807 44.8881 25.4086 45.287C25.0792 45.4373 24.7296 45.4932 24.3726 45.5219C24.1952 45.5359 24.0399 45.6714 24.023 45.8173C24.0058 45.9652 24.0986 46.1172 24.2843 46.1615C24.5033 46.2137 24.7317 46.2285 24.9564 46.2544C25.4386 46.3094 25.9262 46.3345 26.4027 46.4207C27.1233 46.5505 27.5254 47.1795 27.3985 47.9033C27.2855 48.5474 26.9125 49.0161 26.3925 49.3755C25.5163 49.9827 24.555 50.1601 23.5313 49.8504C22.946 49.6729 22.5331 49.288 22.3906 48.6653C22.3191 48.3535 22.3951 48.0713 22.6297 47.8597C22.9086 47.6091 23.2122 47.3857 23.5042 47.1491L23.5987 47.0542L23.4903 46.9782C23.1924 46.8369 22.9542 46.6434 22.8617 46.3073C22.8301 46.1936 22.863 46.1188 22.9595 46.0605C23.1238 45.9615 23.2873 45.8608 23.4496 45.7585C23.526 45.7109 23.6016 45.6616 23.6726 45.6065C23.7696 45.5326 23.761 45.4776 23.6451 45.4348C23.3756 45.3354 23.1362 45.1912 22.9505 44.9694C22.6403 44.5993 22.5524 44.1585 22.5779 43.6931C22.6177 42.966 23.0125 42.487 23.6542 42.1789C24.417 41.8129 25.1823 41.7899 25.9599 42.1235C26.2475 42.2467 26.5506 42.273 26.8591 42.2516C27.0896 42.2352 27.2909 42.1481 27.4712 41.9596V41.9596ZM24.6602 47.1688C24.0875 47.1638 23.908 47.2345 23.572 47.5767C23.1957 47.9604 23.1978 48.4923 23.5732 48.8777C23.8583 49.1697 24.2141 49.3065 24.6097 49.3476C25.0718 49.3952 25.5269 49.3759 25.9468 49.1447C26.3945 48.897 26.6172 48.4369 26.5165 47.9735C26.4331 47.5911 26.1513 47.4161 25.8083 47.3154C25.4181 47.2012 25.0147 47.1795 24.6602 47.1688V47.1688ZM23.5354 43.5095C23.5564 43.6684 23.565 43.8295 23.6003 43.9852C23.692 44.3886 23.8674 44.7431 24.2687 44.9226C24.7399 45.1341 25.3417 45.0434 25.5479 44.382C25.6888 43.9418 25.6724 43.4664 25.5015 43.0371C25.4291 42.8408 25.2987 42.6712 25.1277 42.5507C24.7185 42.2652 23.9803 42.2274 23.6796 42.8584C23.5819 43.0634 23.5437 43.2815 23.5354 43.5095V43.5095Z" fill="#4F382B"/>
<path fill-rule="evenodd" clip-rule="evenodd" d="M17.7557 41.8581C17.7709 41.9284 17.8013 42.0081 17.8021 42.0882C17.8034 42.2406 17.7869 42.393 17.7783 42.5454V42.6776L17.9073 42.5791C18.2606 42.2882 18.6401 42.0405 19.0822 41.907C19.8799 41.6667 20.6768 42.1034 20.9369 42.9159C21.0355 43.2248 21.0745 43.5424 21.0782 43.8652C21.0864 44.5825 21.0913 45.2997 21.0987 46.0169C21.1012 46.2745 21.1308 46.3205 21.3744 46.3949C21.513 46.4363 21.6544 46.4677 21.7975 46.4889C21.8759 46.5013 21.9096 46.5321 21.9055 46.6089L21.9063 46.6795C21.9034 46.9765 21.8829 46.9901 21.5949 46.9893C20.9056 46.988 20.2168 46.9922 19.5274 46.9979C19.3221 46.9995 19.3216 47.0057 19.3011 46.8028L19.297 46.6861C19.3097 46.5111 19.3138 46.5128 19.486 46.4873C19.6018 46.47 19.7168 46.4433 19.8298 46.4138C19.946 46.3838 20.0019 46.2979 20.0175 46.1829C20.0253 46.1246 20.0356 46.0662 20.0352 46.0079C20.0253 45.2241 20.0381 44.4395 19.9953 43.657C19.9608 43.0239 19.4777 42.6468 18.8423 42.69C18.5359 42.7112 18.2415 42.8168 17.9915 42.9952C17.8219 43.1139 17.7878 43.2852 17.7886 43.4696C17.7919 44.2025 17.7989 44.9353 17.8067 45.6686C17.8083 45.8292 17.8128 45.9898 17.828 46.1492C17.844 46.3234 17.9052 46.3936 18.0761 46.4314C18.2396 46.4676 18.4064 46.4885 18.581 46.5177L18.5958 46.6524C18.6015 46.9667 18.5687 46.9901 18.2635 46.9889C17.5507 46.986 16.838 46.9905 16.1257 46.9983C16.0136 47 15.9659 46.9646 15.9688 46.8554L15.9671 46.8085C15.9487 46.5255 15.9569 46.5148 16.2247 46.4688L16.3512 46.4433C16.6413 46.378 16.7156 46.3008 16.7197 46.0063C16.7333 45.0734 16.7382 44.1409 16.7476 43.208C16.7489 43.0741 16.6984 42.9701 16.5735 42.9147C16.3982 42.8379 16.222 42.7634 16.0448 42.6912C15.947 42.6509 15.8353 42.6255 15.8316 42.4903C15.8291 42.395 15.931 42.3108 16.0703 42.2825C16.35 42.2258 16.6322 42.1785 16.9087 42.1091C17.1839 42.0405 17.4542 41.9485 17.7557 41.8581Z" fill="#4F372B"/>
<path fill-rule="evenodd" clip-rule="evenodd" d="M33.1665 44.2949C33.1534 45.1662 32.927 45.8707 32.3109 46.3994C31.5304 47.0702 30.3128 47.2982 29.3174 46.7966C28.8927 46.5826 28.5805 46.2544 28.3771 45.8284C28.0654 45.1732 27.9873 44.4843 28.15 43.7785C28.311 43.0806 28.7337 42.5749 29.3663 42.2475C30.017 41.9111 30.7022 41.7797 31.4248 41.9563C32.3388 42.1794 32.9956 42.9245 33.1263 43.8734C33.1497 44.0398 33.1587 44.2082 33.1665 44.2949V44.2949ZM32.1079 44.7669L32.0726 44.7628C32.0726 44.6806 32.0771 44.5985 32.0718 44.5163C32.0418 44.0045 31.9268 43.5169 31.6302 43.0884C31.3488 42.6826 30.9655 42.4431 30.4668 42.4082C29.9086 42.3687 29.4394 42.6809 29.2747 43.2511C29.0274 44.1072 29.1112 44.9415 29.5458 45.7257C29.7352 46.0675 30.0158 46.3197 30.3917 46.4524C31.1282 46.7116 31.7813 46.376 31.9732 45.6218C32.0438 45.3432 32.0644 45.052 32.1079 44.7669Z" fill="#4F382B"/>
<path fill-rule="evenodd" clip-rule="evenodd" d="M15.0729 44.3623C15.0577 44.9875 14.9102 45.5655 14.5241 46.0679C14.1104 46.606 13.5419 46.8936 12.8953 47.0148C12.1308 47.1577 11.4127 47.0279 10.7986 46.5148C10.507 46.2708 10.3077 45.9582 10.1763 45.6025C9.96061 45.0191 9.90679 44.4214 10.0395 43.8122C10.1812 43.1603 10.5493 42.662 11.1199 42.3277C11.7796 41.9419 12.4915 41.7698 13.2518 41.9432C14.2295 42.1666 14.7939 42.8038 15.0026 43.7683C15.0445 43.963 15.0503 44.1643 15.0729 44.3623V44.3623ZM14.0024 44.7747L13.974 44.7706V44.6531C13.958 44.0797 13.8458 43.5333 13.5037 43.0568C13.2502 42.7031 12.9109 42.4813 12.4759 42.4193C11.7668 42.3182 11.3035 42.7389 11.1498 43.3103C10.9494 44.0567 11.0122 44.794 11.3224 45.5018C11.5159 45.943 11.8215 46.2868 12.291 46.4536C13.023 46.7136 13.686 46.3694 13.8713 45.6181C13.9395 45.3433 13.96 45.0565 14.0024 44.7747V44.7747Z" fill="#4F372B"/>
<path fill-rule="evenodd" clip-rule="evenodd" d="M32.1383 12.4892C32.6424 13.9463 33.0047 15.4337 33.1242 16.975C33.2721 18.8876 33.2047 20.7871 32.8014 22.6681L32.7496 22.8185C32.6231 22.8189 32.4941 22.8029 32.3704 22.8222C31.3258 22.9865 30.2824 23.1566 29.2386 23.3258C28.1594 23.5008 27.0795 23.6688 26.0024 23.8553C25.6208 23.921 25.1484 23.8426 24.9943 24.37L24.9204 24.3951L24.9725 21.241L24.9196 13.6308L25.4224 13.5445C26.2443 13.4102 27.0663 13.2734 27.8896 13.1424C28.8713 12.9867 29.8539 12.8347 30.8366 12.6827C31.2703 12.6161 31.7045 12.5541 32.1383 12.4892V12.4892Z" fill="#439934"/>
<path fill-rule="evenodd" clip-rule="evenodd" d="M23.8826 33.5902C23.3523 33.1342 22.8035 32.6983 22.2953 32.2185C19.5603 29.6388 17.5593 26.6018 16.5738 22.9405C16.3023 21.9332 16.1216 20.9091 16.0632 19.8682C16.0222 19.1395 15.9634 18.4046 16.0152 17.6795C16.152 15.7517 16.4309 13.8423 16.9961 11.9852L17.0274 11.942C17.0824 12.0152 17.1613 12.0801 17.1892 12.1626C17.7413 13.7877 18.2889 15.4144 18.834 17.0424C20.5466 22.1571 22.2571 27.2731 23.9726 32.387C24.0062 32.4868 24.0929 32.5685 24.1554 32.6585L23.8826 33.5902V33.5902Z" fill="#45A538"/>
<path fill-rule="evenodd" clip-rule="evenodd" d="M32.1382 12.4892C31.704 12.5537 31.2698 12.6161 30.8364 12.6827C29.8538 12.8347 28.8712 12.9867 27.8894 13.1424C27.0666 13.273 26.2446 13.4098 25.4222 13.5445L24.9194 13.6308L24.9153 13.303C24.8985 13.0335 24.8705 12.764 24.8668 12.4945L24.8106 7.33751C24.7974 6.26166 24.7777 5.1858 24.7559 4.11036C24.7448 3.44193 24.7255 2.77366 24.698 2.10571C24.6816 1.74709 24.6237 1.39012 24.6007 1.0315C24.5871 0.825281 24.6052 0.617422 24.6097 0.410385C24.866 0.907028 25.117 1.40737 25.3803 1.90031C25.7965 2.67958 26.4599 3.25386 27.0576 3.88032C29.418 6.35778 31.0936 9.23658 32.1382 12.4892V12.4892Z" fill="#46A037"/>
<path fill-rule="evenodd" clip-rule="evenodd" d="M24.9206 24.3951L24.9946 24.37C25.1486 23.8426 25.621 23.921 26.0027 23.8553C27.0797 23.6688 28.1597 23.5008 29.2388 23.3258C30.2827 23.157 31.3261 22.9869 32.3707 22.8222C32.4943 22.8029 32.6233 22.8189 32.7499 22.8185C32.5547 23.5152 32.4011 24.2271 32.1534 24.9045C31.872 25.6726 31.5319 26.4227 31.1708 27.158C30.6299 28.2546 29.9607 29.283 29.1772 30.2217C28.575 30.9455 27.9038 31.6155 27.2313 32.2765C26.8591 32.6417 26.4212 32.9395 26.0129 33.2681L25.9069 33.1958L25.5261 32.8705L25.1322 32.0062C24.863 30.9983 24.7161 29.9617 24.6947 28.9187L24.7021 28.7429L24.7559 27.9813C24.7736 27.7212 24.7974 27.4616 24.8085 27.2016C24.8479 26.2666 24.8833 25.3309 24.9206 24.3951V24.3951Z" fill="#409433"/>
<path fill-rule="evenodd" clip-rule="evenodd" d="M24.9208 24.3951C24.8838 25.3309 24.8485 26.267 24.8086 27.2028C24.7975 27.4633 24.7741 27.7229 24.756 27.9825L24.5161 28.0733C23.9829 26.5037 23.4493 24.9505 22.9276 23.3936C22.0646 20.8175 21.2122 18.2378 20.3503 15.6609C19.6544 13.5812 18.9536 11.5032 18.2479 9.42678C18.2147 9.32983 18.1202 9.25342 18.0544 9.16757L19.5908 6.34258C19.6438 6.43418 19.7132 6.52004 19.7465 6.61863C20.4571 8.72186 21.1666 10.8255 21.8698 12.9312C22.7851 15.6712 23.6942 18.4124 24.6086 21.1527C24.6451 21.262 24.7051 21.3631 24.7626 21.4859L24.9729 21.241L24.9208 24.3951Z" fill="#4FAA41"/>
<path fill-rule="evenodd" clip-rule="evenodd" d="M18.0539 9.16757C18.1201 9.25343 18.2146 9.32983 18.2474 9.42678C18.9532 11.5032 19.654 13.5812 20.3498 15.6609C21.2117 18.2378 22.0641 20.8175 22.9271 23.3936C23.4488 24.9505 23.9824 26.5033 24.5157 28.0733L24.7556 27.9825L24.7017 28.7441L24.6529 28.9195C24.5695 29.753 24.4992 30.5881 24.3973 31.42C24.3464 31.8369 24.2375 32.2461 24.155 32.6585C24.093 32.5685 24.0059 32.4868 23.9722 32.387C22.2563 27.2731 20.5462 22.1571 18.8336 17.0424C18.2887 15.4147 17.7405 13.7881 17.1888 12.1626C17.1609 12.0801 17.082 12.0152 17.027 11.942L18.0539 9.16757V9.16757Z" fill="#4AA73C"/>
<path fill-rule="evenodd" clip-rule="evenodd" d="M24.9725 21.241L24.7622 21.4859C24.7046 21.3631 24.6447 21.262 24.6081 21.1527C23.6937 18.4124 22.7846 15.6712 21.8694 12.9312C21.1653 10.8258 20.4575 8.72158 19.746 6.61862C19.7127 6.52004 19.6433 6.43418 19.5903 6.34257L21.4902 3.84334C21.5502 3.92303 21.6356 3.9941 21.6665 4.08406C22.1939 5.62862 22.7164 7.17442 23.2365 8.72145C23.722 10.1666 24.2002 11.6134 24.6915 13.0561C24.7244 13.1526 24.839 13.2208 24.9154 13.303L24.9195 13.6308L24.9725 21.241V21.241Z" fill="#57AE47"/>
<path fill-rule="evenodd" clip-rule="evenodd" d="M24.9154 13.303C24.8386 13.2212 24.7244 13.153 24.6915 13.0561C24.2006 11.6134 23.722 10.1666 23.2365 8.72145C22.7168 7.1744 22.1935 5.6286 21.6665 4.08406C21.6357 3.9941 21.5502 3.92303 21.4902 3.84334C22.1081 3.23825 22.7066 2.61138 23.3495 2.03422C23.9209 1.52156 24.3801 0.971925 24.4015 0.16144L24.4467 0L24.6093 0.409967C24.6052 0.617004 24.5868 0.824863 24.6003 1.03108C24.6237 1.3897 24.6816 1.74667 24.6977 2.10529C24.7277 2.77282 24.742 3.44159 24.7556 4.10994C24.7774 5.18538 24.7971 6.26124 24.8102 7.33709L24.8665 12.4941C24.8706 12.764 24.899 13.0335 24.9154 13.303V13.303Z" fill="#60B24F"/>
<path fill-rule="evenodd" clip-rule="evenodd" d="M24.1555 32.6581C24.2381 32.2457 24.3469 31.8365 24.3979 31.4196C24.4997 30.5881 24.57 29.7526 24.6534 28.9191L24.6743 28.9158L24.6949 28.9195C24.7163 29.9625 24.8632 30.9991 25.1324 32.007C25.0769 32.0801 24.9993 32.1446 24.9697 32.2268C24.7417 32.8701 24.5264 33.5187 24.2972 34.1616C24.266 34.2495 24.1781 34.3181 24.1169 34.3949L23.8823 33.5898L24.1555 32.6581Z" fill="#A9AA88"/>
<path fill-rule="evenodd" clip-rule="evenodd" d="M24.1168 34.3953C24.178 34.3181 24.2659 34.2499 24.2972 34.162C24.5264 33.5191 24.7416 32.8705 24.9696 32.2272C24.9988 32.145 25.0768 32.0805 25.1323 32.0074L25.5262 32.8717C25.4486 32.9818 25.341 33.0816 25.2978 33.2045L24.5436 35.4194C24.5124 35.5086 24.4068 35.571 24.3354 35.6462L24.1168 34.3953V34.3953Z" fill="#B6B598"/>
<path fill-rule="evenodd" clip-rule="evenodd" d="M24.3353 35.6458C24.4064 35.5706 24.5124 35.5081 24.5436 35.419L25.2978 33.204C25.3405 33.0812 25.4486 32.9814 25.5262 32.8713L25.9074 33.1962C25.7234 33.3782 25.6211 33.5885 25.6827 33.8543L25.5669 34.2335C25.5143 34.2984 25.4379 34.3551 25.412 34.4294C25.1487 35.1836 24.8977 35.9419 24.6323 36.6957C24.5986 36.791 24.5054 36.8662 24.4401 36.9508L24.3353 35.6458V35.6458Z" fill="#C2C1A7"/>
<path fill-rule="evenodd" clip-rule="evenodd" d="M24.4397 36.9504C24.5054 36.8658 24.5986 36.7906 24.6319 36.6953C24.8973 35.9415 25.1487 35.1832 25.4116 34.429C25.4375 34.3547 25.5139 34.2984 25.5665 34.2331L25.4067 35.9732C25.3639 36.0225 25.3023 36.0656 25.2818 36.1227L24.7502 37.6459C24.7128 37.7498 24.6414 37.8427 24.5855 37.94C24.5358 37.8751 24.4471 37.8123 24.4429 37.7449C24.4273 37.4812 24.4384 37.2154 24.4397 36.9504V36.9504Z" fill="#CECDB7"/>
<path fill-rule="evenodd" clip-rule="evenodd" d="M24.5859 37.9404C24.6418 37.8431 24.7133 37.7502 24.7507 37.6463L25.2822 36.1231C25.3028 36.0656 25.3648 36.0229 25.4071 35.9736L25.4112 37.1156L25.0288 38.0961L24.5859 37.9404V37.9404Z" fill="#DBDAC7"/>
<path fill-rule="evenodd" clip-rule="evenodd" d="M25.0288 38.0961L25.4113 37.1156L25.4901 38.2756L25.0288 38.0961V38.0961Z" fill="#EBE9DC"/>
<path fill-rule="evenodd" clip-rule="evenodd" d="M25.6822 33.8543C25.621 33.5889 25.7229 33.3786 25.9069 33.1962L26.0129 33.2685L25.6822 33.8543V33.8543Z" fill="#CECDB7"/>
<path fill-rule="evenodd" clip-rule="evenodd" d="M24.6948 28.9199L24.6743 28.9162L24.6533 28.9195L24.7022 28.7441L24.6948 28.9199V28.9199Z" fill="#4FAA41"/>
</svg>
