<svg width="52" height="50" viewBox="0 0 52 50" fill="none" xmlns="http://www.w3.org/2000/svg">
<path d="M0.000419328 31.599H1.72314V24.7958L4.39026 30.7268C4.70478 31.4447 5.13546 31.6984 5.98047 31.6984C6.82547 31.6984 7.2398 31.4447 7.55432 30.7268L10.2214 24.7958V31.599H11.9442V24.8071C11.9442 24.1445 11.6791 23.8237 11.1323 23.6585C9.82346 23.25 8.94533 23.6035 8.54778 24.4871L5.93056 30.3405L3.39638 24.4867C3.01518 23.6035 2.12069 23.25 0.811877 23.6581C0.265034 23.8237 0 24.1441 0 24.8067V31.599H0.000419328ZM13.3771 26.061H15.0994V29.8092C15.0835 30.0126 15.1648 30.4907 16.1084 30.5058C16.5898 30.5133 19.8247 30.5058 19.8549 30.5058V26.0425H21.5814C21.5894 26.0425 21.5797 32.1291 21.5797 32.1542C21.589 33.6556 19.7174 33.9814 18.8543 34.0066H13.4144V32.8474C13.4237 32.8474 18.8506 32.8487 18.864 32.847C19.9732 32.73 19.8419 32.179 19.8415 31.9936V31.5416H16.1801C14.4767 31.5261 13.3914 30.7825 13.3775 29.927C13.3767 29.8486 13.4148 26.0987 13.3771 26.061V26.061Z" fill="#00618A"/>
<path d="M22.9095 31.599H27.863C28.443 31.599 29.0066 31.4778 29.4536 31.2682C30.1988 30.926 30.5632 30.4622 30.5632 29.8541V28.5952C30.5632 28.0982 30.1493 27.634 29.3375 27.3254C28.9068 27.1593 28.3763 27.0716 27.8626 27.0716H25.775C25.0793 27.0716 24.748 26.862 24.6654 26.3982C24.649 26.3428 24.649 26.2988 24.649 26.2434V25.4592C24.649 25.4152 24.649 25.3707 24.6654 25.3158C24.748 24.9623 24.9304 24.8629 25.5435 24.8075L25.7092 24.7966H30.6295V23.6484H25.7922C25.0965 23.6484 24.7321 23.6925 24.4008 23.7918C23.3738 24.1122 22.9259 24.6201 22.9259 25.5037V26.5084C22.9259 27.2817 23.8045 27.9443 25.2785 28.0991C25.4446 28.1096 25.6098 28.1213 25.7754 28.1213H27.5648C27.6311 28.1213 27.6974 28.1213 27.7473 28.1318C28.2941 28.1758 28.5256 28.2756 28.6917 28.474C28.7342 28.5133 28.768 28.5611 28.7907 28.6144C28.8135 28.6677 28.8248 28.7251 28.8238 28.783V29.7882C28.8238 29.9094 28.7411 30.0642 28.5755 30.1967C28.4266 30.3292 28.1779 30.4177 27.8466 30.4399L27.6642 30.4508H22.9095V31.599ZM41.3114 29.6004C41.3114 30.7817 42.1895 31.4443 43.9617 31.5772C44.1274 31.5881 44.293 31.599 44.4587 31.599H48.9483V30.4508H44.426C43.4153 30.4508 43.0345 30.1967 43.0345 29.589V23.6476H41.3118V29.6004H41.3114ZM31.6628 29.6599V25.5649C31.6628 24.5249 32.3933 23.8937 33.8376 23.6946C33.9915 23.6725 34.1468 23.6614 34.3022 23.6614H37.5728C37.7389 23.6614 37.8882 23.6723 38.0538 23.6946C39.4981 23.8937 40.229 24.5245 40.229 25.5649V29.6599C40.229 30.5045 39.9187 30.9557 39.2037 31.2501L40.9013 32.782H38.9005L37.5275 31.5424L36.1453 31.6301H34.3022C33.9599 31.6279 33.6194 31.5795 33.2899 31.4862C32.1941 31.1876 31.6628 30.6119 31.6628 29.6599V29.6599ZM33.5222 29.5605C33.5222 29.6159 33.5386 29.6717 33.5554 29.7379C33.6548 30.2139 34.1035 30.4793 34.7837 30.4793H36.3487L34.9112 29.1814H36.9119L38.1654 30.3137C38.3969 30.19 38.5487 30.0021 38.6019 29.7601C38.6183 29.7048 38.6183 29.6494 38.6183 29.5941V25.6655C38.6183 25.6215 38.6183 25.5657 38.6019 25.5104C38.5021 25.0675 38.0538 24.8134 37.39 24.8134H34.7833C34.02 24.8134 33.5218 25.1455 33.5218 25.6655V29.5605H33.5222Z" fill="#E48E00"/>
<path d="M50.4638 21.7416C49.4049 21.7127 48.596 21.8112 47.904 22.1027C47.7073 22.1857 47.3941 22.1878 47.3622 22.434C47.47 22.5476 47.4868 22.7166 47.5727 22.8558C47.738 23.123 48.0168 23.4811 48.2655 23.6686C48.5368 23.8736 48.817 24.0934 49.1088 24.2712C49.6267 24.5874 50.2055 24.7677 50.7049 25.0839C50.9989 25.2709 51.2908 25.5058 51.578 25.7167C51.7202 25.8203 51.815 25.9826 51.9999 26.0476V26.0178C51.903 25.8945 51.8779 25.7251 51.789 25.5959L51.3973 25.2042C51.0144 24.696 50.5288 24.2502 50.0117 23.8795C49.5999 23.5838 48.6782 23.1842 48.5062 22.7049L48.476 22.6751C48.7679 22.642 49.1101 22.5363 49.3793 22.4642C49.8322 22.3425 50.2369 22.374 50.7045 22.2532L51.3369 22.0721V21.9521C51.1008 21.7097 50.9318 21.3885 50.6743 21.1692C50.0004 20.5951 49.264 20.0214 48.5062 19.5425C48.086 19.2775 47.5664 19.1051 47.1207 18.8803C46.9714 18.8044 46.708 18.7654 46.6086 18.6392C46.3742 18.341 46.2471 17.9632 46.0664 17.6155C45.6804 16.8645 45.3188 16.1012 44.9824 15.3267C44.7542 14.8046 44.6049 14.2896 44.3202 13.8212C42.9527 11.573 41.4807 10.216 39.2007 8.88241C38.7155 8.5985 38.1313 8.48695 37.5144 8.34059L36.5205 8.28021C36.3188 8.19592 36.1083 7.9485 35.9183 7.82856C35.1627 7.35133 33.2252 6.31342 32.6658 7.67843C32.3127 8.53979 33.1942 9.38018 33.5091 9.81674C33.7301 10.1229 34.0136 10.4659 34.1717 10.8102C34.2757 11.0366 34.2933 11.2635 34.3827 11.503C34.6011 12.0926 34.7919 12.7346 35.075 13.2794C35.218 13.5553 35.3761 13.8459 35.5569 14.0925C35.6676 14.2435 35.858 14.3106 35.8877 14.5442C35.702 14.8042 35.6911 15.2084 35.5866 15.5376C35.1161 17.0217 35.2935 18.8665 35.9783 19.9648C36.1884 20.3024 36.6833 21.0253 37.3635 20.7477C37.9585 20.5053 37.826 19.7543 37.9963 19.0913C38.0348 18.9415 38.0109 18.8308 38.0864 18.7302V18.7604L38.6287 19.8444C39.03 20.4907 39.7416 21.1654 40.3451 21.6212C40.6579 21.8573 40.9045 22.2662 41.3088 22.4042V22.3736H41.279C41.2002 22.2515 41.0781 22.2012 40.9775 22.1027C40.7418 21.8716 40.4797 21.5848 40.2851 21.3197C39.7362 20.5749 39.2514 19.7593 38.8094 18.9105C38.5985 18.5054 38.4152 18.0584 38.2374 17.6457C38.1686 17.4868 38.1695 17.2461 38.0269 17.1643C37.8315 17.4662 37.545 17.7107 37.3941 18.0676C37.1534 18.6379 37.1223 19.3336 37.033 20.0549L36.9726 20.0847C36.5528 19.9837 36.4056 19.5517 36.2496 19.1814C35.8554 18.245 35.7821 16.7366 36.1293 15.6584C36.219 15.3791 36.6245 14.5005 36.4602 14.2426C36.3817 13.9856 36.123 13.8371 35.9787 13.64C35.7895 13.3763 35.628 13.0937 35.4969 12.7967C35.174 12.0666 35.0234 11.2467 34.6842 10.5083C34.5215 10.1552 34.2472 9.79828 34.0216 9.4846C33.7721 9.13654 33.4924 8.88073 33.2986 8.46053C33.2298 8.31124 33.1363 8.07179 33.2382 7.9183C33.2705 7.81472 33.3171 7.77153 33.4194 7.73756C33.5938 7.60294 34.0803 7.78243 34.2623 7.85791C34.7454 8.05879 35.1484 8.24959 35.5577 8.5205C35.754 8.65092 35.9523 8.90253 36.1901 8.97215H36.461C36.885 9.06944 37.3601 9.00192 37.756 9.12228C38.4563 9.33531 39.0837 9.66619 39.6531 10.026C41.3889 11.1222 42.8076 12.6822 43.7788 14.5433C43.9348 14.8432 44.0027 15.1287 44.1399 15.4466C44.4175 16.0874 44.7672 16.747 45.0432 17.374C45.3187 17.9993 45.5875 18.6304 45.9771 19.1508C46.1817 19.4242 46.9726 19.571 47.332 19.7228C47.584 19.8293 47.9967 19.9405 48.2353 20.0839C48.6912 20.359 49.1332 20.6865 49.5605 20.9876C49.7739 21.1394 50.4311 21.4694 50.4638 21.7416V21.7416ZM37.0028 10.2684C36.8202 10.2654 36.638 10.2857 36.4606 10.3288V10.3585H36.4908C36.596 10.5754 36.7818 10.7146 36.9122 10.9008L37.2137 11.5332L37.2435 11.5034C37.4301 11.3721 37.5153 11.162 37.5144 10.8408C37.4394 10.762 37.4285 10.6634 37.3639 10.5699C37.2783 10.4441 37.1114 10.3736 37.0028 10.2684V10.2684Z" fill="#00618A"/>
</svg>
