<svg width="83" height="36" viewBox="0 0 83 36" fill="none" xmlns="http://www.w3.org/2000/svg">
<rect y="3.85714" width="82.2857" height="28.2857" rx="2" fill="white"/>
<path d="M74.7159 27.1763C74.5262 27.1763 74.3377 27.1265 74.1715 27.0297L72.4376 26.0037C72.1785 25.8591 72.3047 25.8074 72.3905 25.778C72.7359 25.6576 72.806 25.6295 73.1743 25.4214C73.2129 25.3998 73.2633 25.4076 73.3032 25.4312L74.6348 26.2223C74.6595 26.2355 74.6872 26.2424 74.7153 26.2424C74.7433 26.2424 74.771 26.2355 74.7958 26.2223L79.9891 23.2248C80.0136 23.2104 80.0338 23.1898 80.0478 23.1651C80.0618 23.1404 80.0691 23.1125 80.0689 23.0841V17.0905C80.069 17.0617 80.0616 17.0334 80.0475 17.0083C80.0334 16.9832 80.0131 16.9622 79.9885 16.9472L74.7971 13.9524C74.7725 13.9389 74.7449 13.9318 74.7169 13.9318C74.6889 13.9318 74.6613 13.9389 74.6368 13.9524L69.446 16.9479C69.4214 16.9628 69.401 16.9837 69.3866 17.0086C69.3723 17.0336 69.3646 17.0618 69.3642 17.0905V23.0841C69.3642 23.1417 69.3963 23.196 69.446 23.2228L70.8685 24.0453C71.6406 24.4307 72.1137 23.9766 72.1137 23.5199V17.6015C72.1137 17.5185 72.1811 17.4524 72.2642 17.4524H72.9231C73.0049 17.4524 73.0729 17.5185 73.0729 17.6015V23.5199C73.0729 24.5498 72.5122 25.1407 71.5353 25.1407C71.2349 25.1407 70.9987 25.1407 70.3392 24.8161L68.9775 24.0322C68.8119 23.9357 68.6744 23.7974 68.5789 23.6312C68.4834 23.4649 68.4331 23.2765 68.4331 23.0848V17.0912C68.4331 16.7019 68.6405 16.3387 68.9775 16.145L74.1709 13.1436C74.3382 13.0525 74.5257 13.0048 74.7163 13.0048C74.9068 13.0048 75.0943 13.0525 75.2616 13.1436L80.455 16.145C80.7913 16.3394 81.0001 16.7025 81.0001 17.0912V23.0848C80.9997 23.2765 80.9492 23.4649 80.8536 23.6311C80.758 23.7973 80.6206 23.9356 80.455 24.0322L75.2616 27.0304C75.0959 27.1265 74.9075 27.1769 74.7159 27.1763ZM76.321 23.0468C74.0472 23.0468 73.5715 22.0032 73.5715 21.1284C73.5717 21.0886 73.5876 21.0504 73.6158 21.0224C73.644 20.9943 73.6822 20.9785 73.722 20.9785H74.3933C74.4293 20.9784 74.4641 20.9911 74.4914 21.0144C74.5188 21.0377 74.5369 21.07 74.5425 21.1055C74.6433 21.7892 74.9462 22.1341 76.321 22.1341C77.4144 22.1341 77.8802 21.8867 77.8802 21.3057C77.8802 20.9707 77.7481 20.7227 76.0481 20.5558C74.6269 20.4151 73.7482 20.1017 73.7482 18.9639C73.7482 17.9163 74.6315 17.2907 76.1116 17.2907C77.7755 17.2907 78.5987 17.8685 78.7027 19.1078C78.7044 19.1287 78.7017 19.1496 78.695 19.1694C78.6882 19.1892 78.6775 19.2075 78.6635 19.223C78.6492 19.2379 78.6322 19.2497 78.6133 19.2579C78.5944 19.2661 78.5741 19.2705 78.5535 19.2707H77.8789C77.8449 19.2708 77.8119 19.2592 77.7853 19.2379C77.7588 19.2166 77.7403 19.1868 77.733 19.1536C77.5707 18.4339 77.1781 18.2042 76.1109 18.2042C74.9168 18.2042 74.7781 18.621 74.7781 18.9318C74.7781 19.3093 74.9417 19.4193 76.5546 19.6326C78.1505 19.8439 78.9088 20.1423 78.9088 21.2645C78.9095 22.3984 77.966 23.0468 76.321 23.0468" fill="#83CD29"/>
<path d="M64.0224 19.1157C64.2272 18.9959 64.3535 18.7774 64.3535 18.5399V16.9996C64.3535 16.7627 64.2279 16.5442 64.0224 16.4244L58.5496 13.247C58.4484 13.1882 58.3335 13.1571 58.2164 13.1568C58.0994 13.1566 57.9843 13.1873 57.8829 13.2457L52.3761 16.4251C52.2751 16.4835 52.1913 16.5675 52.1329 16.6685C52.0746 16.7696 52.0438 16.8842 52.0437 17.0009V23.3583C52.0437 23.5971 52.1719 23.8183 52.38 23.9367L57.8521 27.0546C58.0537 27.1704 58.301 27.171 58.5045 27.0585L61.8141 25.2185C61.8656 25.19 61.9086 25.1482 61.9386 25.0975C61.9687 25.0468 61.9848 24.9891 61.9852 24.9302C61.9856 24.8712 61.9703 24.8133 61.9409 24.7622C61.9115 24.7111 61.8691 24.6688 61.818 24.6395L56.2772 21.4595C56.2263 21.4305 56.1841 21.3886 56.1547 21.338C56.1253 21.2875 56.1097 21.23 56.1097 21.1715V19.1785C56.1097 19.0594 56.1731 18.9501 56.2759 18.8912L58.0013 17.8967C58.0517 17.8674 58.1089 17.852 58.1672 17.852C58.2254 17.852 58.2827 17.8674 58.3331 17.8967L60.0585 18.8912C60.1091 18.9202 60.1512 18.962 60.1805 19.0125C60.2098 19.0629 60.2253 19.1202 60.2254 19.1785V20.7462C60.225 20.8049 60.2402 20.8625 60.2694 20.9134C60.2986 20.9642 60.3407 21.0064 60.3915 21.0357C60.4423 21.0649 60.5 21.0802 60.5586 21.0799C60.6172 21.0797 60.6747 21.0639 60.7253 21.0341L64.0224 19.1157" fill="#404137"/>
<path d="M58.1345 18.8173C58.154 18.8064 58.1759 18.8007 58.1983 18.8007C58.2206 18.8007 58.2426 18.8064 58.2621 18.8173L59.3188 19.4278C59.3581 19.4507 59.3823 19.4932 59.3823 19.5384V20.7587C59.3823 20.8045 59.3581 20.8464 59.3188 20.8693L58.2621 21.4791C58.2427 21.4904 58.2207 21.4963 58.1983 21.4963C58.1759 21.4963 58.1539 21.4904 58.1345 21.4791L57.0784 20.8693C57.0589 20.8581 57.0427 20.8421 57.0314 20.8226C57.0201 20.8032 57.0142 20.7811 57.0143 20.7587V19.5384C57.0143 19.4932 57.0385 19.4507 57.0784 19.4278L58.1345 18.8173Z" fill="#83CD29"/>
<path d="M43.8043 21.3561C43.8043 21.415 43.7729 21.4699 43.7212 21.5L41.8302 22.5901C41.805 22.6049 41.7763 22.6127 41.7471 22.6127C41.7179 22.6127 41.6892 22.6049 41.664 22.5901L39.773 21.5C39.7478 21.4854 39.7268 21.4644 39.7122 21.4391C39.6977 21.4139 39.69 21.3852 39.6899 21.3561V19.1719C39.6899 19.113 39.722 19.0574 39.773 19.0273L41.664 17.9359C41.6892 17.9208 41.718 17.9128 41.7474 17.9128C41.7768 17.9128 41.8056 17.9208 41.8308 17.9359L43.7225 19.0273C43.7476 19.0423 43.7683 19.0634 43.7828 19.0888C43.7972 19.1141 43.8049 19.1428 43.8049 19.1719V21.3561H43.8043ZM44.3153 5.1838C44.2646 5.1561 44.2076 5.14201 44.1498 5.1429C44.092 5.14379 44.0355 5.15964 43.9857 5.18891C43.9358 5.21817 43.8944 5.25984 43.8655 5.30986C43.8366 5.35988 43.8211 5.41655 43.8206 5.47432V13.9249C43.8205 13.9657 43.8097 14.0057 43.7894 14.041C43.7691 14.0763 43.7399 14.1058 43.7048 14.1264C43.6693 14.1467 43.6292 14.1574 43.5883 14.1574C43.5475 14.1574 43.5074 14.1467 43.4719 14.1264L42.0926 13.3314C41.9916 13.2733 41.8771 13.2427 41.7605 13.2427C41.6439 13.2427 41.5294 13.2733 41.4284 13.3314L35.9203 16.5101C35.8191 16.5686 35.7351 16.6526 35.6766 16.7538C35.6182 16.855 35.5874 16.9698 35.5873 17.0866V23.446C35.5873 23.6835 35.7142 23.9027 35.9197 24.0224L41.4278 27.2031C41.6332 27.3222 41.8871 27.3222 42.0932 27.2031L47.6026 24.0224C47.7036 23.9638 47.7875 23.8797 47.8458 23.7786C47.9041 23.6774 47.9349 23.5627 47.935 23.446V7.59368C47.935 7.35289 47.8042 7.13042 47.5941 7.01264L44.3153 5.1838Z" fill="#404137"/>
<path d="M24.9302 13.2117C25.0312 13.1532 25.1459 13.1224 25.2626 13.1224C25.3793 13.1224 25.494 13.1532 25.595 13.2117L31.1031 16.3897C31.3086 16.5088 31.4355 16.7287 31.4355 16.9662V23.3275C31.4355 23.5651 31.3086 23.7849 31.1031 23.904L25.5957 27.0847C25.4944 27.1429 25.3797 27.1735 25.2629 27.1735C25.1462 27.1735 25.0314 27.1429 24.9302 27.0847L19.4241 23.904C19.3231 23.8454 19.2392 23.7613 19.1809 23.6601C19.1226 23.559 19.0918 23.4443 19.0917 23.3275V16.9655C19.0917 16.7287 19.2186 16.5088 19.4241 16.3897L24.9302 13.2117" fill="#83CD29"/>
<path d="M14.9139 16.9132C14.9139 16.6737 14.7883 16.4539 14.5815 16.3355L9.07539 13.1666C8.98292 13.1129 8.87862 13.0831 8.77178 13.0795H8.71486C8.60804 13.0831 8.50376 13.113 8.41125 13.1666L2.90446 16.3355C2.80316 16.3941 2.71906 16.4783 2.6606 16.5798C2.60214 16.6812 2.57138 16.7962 2.57141 16.9132L2.58319 25.4456C2.58319 25.5647 2.64535 25.6753 2.74939 25.7328C2.7992 25.7631 2.85635 25.779 2.9146 25.779C2.97286 25.779 3.03001 25.7631 3.07982 25.7328L6.35144 23.8589C6.55821 23.7359 6.68449 23.5193 6.68449 23.2818V19.2956C6.68449 19.0574 6.81012 18.8382 7.01623 18.7192L8.40994 17.917C8.51068 17.8578 8.6255 17.8268 8.74234 17.8273C8.85619 17.8273 8.97266 17.8561 9.07408 17.917L10.4665 18.7192C10.6726 18.8382 10.7995 19.0574 10.7995 19.2956V23.2818C10.7995 23.5193 10.9271 23.7372 11.1326 23.8589L14.4042 25.7328C14.4547 25.7617 14.5118 25.7768 14.5699 25.7766C14.628 25.7765 14.685 25.7611 14.7354 25.7321C14.7857 25.703 14.8275 25.6613 14.8566 25.611C14.8858 25.5607 14.9013 25.5037 14.9015 25.4456L14.9139 16.9132" fill="#404137"/>
</svg>
