<svg width="64" height="50" viewBox="0 0 64 50" fill="none" xmlns="http://www.w3.org/2000/svg">
<rect y="16" width="64" height="22" rx="2" fill="white"/>
<path d="M58.1123 34.1371C57.9648 34.1371 57.8182 34.0984 57.6889 34.0231L56.3403 33.2251C56.1388 33.1126 56.237 33.0724 56.3036 33.0495C56.5724 32.9559 56.6268 32.934 56.9133 32.7722C56.9434 32.7554 56.9825 32.7615 57.0136 32.7798L58.0492 33.3951C58.0685 33.4054 58.09 33.4108 58.1118 33.4108C58.1337 33.4108 58.1552 33.4054 58.1744 33.3951L62.2137 31.0637C62.2327 31.0525 62.2485 31.0365 62.2594 31.0173C62.2703 30.9981 62.2759 30.9764 62.2758 30.9543V26.2926C62.2758 26.2702 62.2701 26.2482 62.2591 26.2287C62.2482 26.2092 62.2323 26.1928 62.2132 26.1812L58.1754 23.8519C58.1564 23.8413 58.1349 23.8358 58.1131 23.8358C58.0913 23.8358 58.0699 23.8413 58.0508 23.8519L54.0135 26.1817C53.9944 26.1933 53.9785 26.2095 53.9674 26.2289C53.9562 26.2483 53.9502 26.2703 53.9499 26.2926V30.9543C53.9499 30.9991 53.9748 31.0413 54.0135 31.0622L55.1199 31.7019C55.7204 32.0017 56.0884 31.6485 56.0884 31.2933V26.6901C56.0884 26.6255 56.1408 26.5741 56.2054 26.5741H56.7179C56.7815 26.5741 56.8345 26.6255 56.8345 26.6901V31.2933C56.8345 32.0943 56.3983 32.5539 55.6385 32.5539C55.4049 32.5539 55.2212 32.5539 54.7082 32.3014L53.6491 31.6917C53.5203 31.6167 53.4134 31.5091 53.3391 31.3798C53.2648 31.2505 53.2257 31.104 53.2257 30.9548V26.2931C53.2257 25.9903 53.387 25.7079 53.6491 25.5572L57.6884 23.2228C57.8186 23.152 57.9644 23.1148 58.1126 23.1148C58.2608 23.1148 58.4066 23.152 58.5368 23.2228L62.5761 25.5572C62.8377 25.7084 63 25.9908 63 26.2931V30.9548C62.9997 31.104 62.9605 31.2504 62.8861 31.3797C62.8118 31.509 62.7049 31.6166 62.5761 31.6917L58.5368 34.0236C58.4079 34.0984 58.2614 34.1376 58.1123 34.1371ZM59.3607 30.9253C57.5922 30.9253 57.2222 30.1136 57.2222 29.4332C57.2224 29.4022 57.2348 29.3726 57.2567 29.3507C57.2786 29.3289 57.3083 29.3166 57.3393 29.3166H57.8614C57.8894 29.3165 57.9164 29.3264 57.9377 29.3445C57.959 29.3626 57.9731 29.3878 57.9775 29.4154C58.0559 29.9472 58.2915 30.2154 59.3607 30.2154C60.2111 30.2154 60.5735 30.023 60.5735 29.5711C60.5735 29.3105 60.4707 29.1176 59.1485 28.9879C58.0431 28.8784 57.3597 28.6347 57.3597 27.7497C57.3597 26.9349 58.0467 26.4484 59.1979 26.4484C60.492 26.4484 61.1323 26.8977 61.2132 27.8616C61.2145 27.8778 61.2124 27.8942 61.2072 27.9096C61.2019 27.925 61.1936 27.9391 61.1827 27.9512C61.1716 27.9628 61.1583 27.972 61.1437 27.9784C61.129 27.9848 61.1132 27.9882 61.0972 27.9883H60.5725C60.546 27.9884 60.5203 27.9794 60.4997 27.9628C60.479 27.9462 60.4647 27.9231 60.459 27.8973C60.3328 27.3374 60.0274 27.1588 59.1974 27.1588C58.2686 27.1588 58.1607 27.483 58.1607 27.7247C58.1607 28.0184 58.2879 28.1039 59.5424 28.2698C60.7837 28.4342 61.3735 28.6662 61.3735 29.539C61.374 30.421 60.6401 30.9253 59.3607 30.9253Z" fill="#83CD29"/>
<path d="M49.7952 27.8677C49.9545 27.7746 50.0527 27.6046 50.0527 27.4199V26.2219C50.0527 26.0377 49.955 25.8677 49.7952 25.7746L45.5386 23.3033C45.4599 23.2575 45.3705 23.2333 45.2794 23.2331C45.1884 23.2329 45.0989 23.2568 45.02 23.3022L40.7369 25.7751C40.6584 25.8205 40.5932 25.8858 40.5478 25.9644C40.5024 26.043 40.4785 26.1322 40.4784 26.2229V31.1676C40.4784 31.3533 40.5781 31.5253 40.74 31.6175L44.9961 34.0425C45.1528 34.1325 45.3452 34.133 45.5035 34.0455L48.0776 32.6144C48.1176 32.5922 48.1511 32.5597 48.1745 32.5203C48.1978 32.4809 48.2103 32.436 48.2106 32.3901C48.211 32.3443 48.1991 32.2992 48.1762 32.2595C48.1534 32.2198 48.1204 32.1868 48.0806 32.164L43.7711 29.6907C43.7316 29.6682 43.6987 29.6356 43.6758 29.5963C43.6529 29.5569 43.6409 29.5123 43.6408 29.4668V27.9166C43.6408 27.824 43.6902 27.739 43.7701 27.6932L45.1121 26.9196C45.1513 26.8969 45.1958 26.8849 45.2411 26.8849C45.2864 26.8849 45.3309 26.8969 45.3701 26.9196L46.7121 27.6932C46.7515 27.7157 46.7842 27.7483 46.807 27.7875C46.8298 27.8267 46.8418 27.8712 46.8419 27.9166V29.136C46.8416 29.1816 46.8535 29.2264 46.8762 29.266C46.8989 29.3055 46.9316 29.3383 46.9712 29.3611C47.0107 29.3838 47.0555 29.3957 47.1011 29.3955C47.1467 29.3953 47.1914 29.383 47.2307 29.3599L49.7952 27.8677Z" fill="#404137"/>
<path d="M45.2158 27.6357C45.2309 27.6272 45.248 27.6228 45.2654 27.6228C45.2827 27.6228 45.2998 27.6272 45.315 27.6357L46.1369 28.1105C46.1674 28.1283 46.1863 28.1614 46.1863 28.1965V29.1456C46.1863 29.1813 46.1674 29.2138 46.1369 29.2317L45.315 29.706C45.2999 29.7147 45.2828 29.7193 45.2654 29.7193C45.2479 29.7193 45.2308 29.7147 45.2158 29.706L44.3944 29.2317C44.3792 29.223 44.3666 29.2105 44.3578 29.1954C44.349 29.1803 44.3444 29.1631 44.3445 29.1456V28.1965C44.3445 28.1614 44.3633 28.1283 44.3944 28.1105L45.2158 27.6357Z" fill="#83CD29"/>
<path d="M34.07 29.6103C34.07 29.6561 34.0455 29.6988 34.0053 29.7222L32.5345 30.5701C32.5149 30.5816 32.4926 30.5877 32.4699 30.5877C32.4472 30.5877 32.4249 30.5816 32.4053 30.5701L30.9345 29.7222C30.9149 29.7109 30.8986 29.6945 30.8873 29.6749C30.8759 29.6552 30.8699 29.633 30.8699 29.6103V27.9115C30.8699 27.8657 30.8948 27.8224 30.9345 27.799L32.4053 26.9502C32.4249 26.9384 32.4473 26.9322 32.4702 26.9322C32.493 26.9322 32.5155 26.9384 32.5351 26.9502L34.0063 27.799C34.0258 27.8106 34.042 27.8271 34.0532 27.8468C34.0645 27.8665 34.0704 27.8888 34.0705 27.9115V29.6103H34.07ZM34.4674 17.0318C34.428 17.0103 34.3836 16.9993 34.3387 17C34.2938 17.0007 34.2498 17.0131 34.211 17.0358C34.1723 17.0586 34.1401 17.091 34.1176 17.1299C34.0951 17.1688 34.0831 17.2129 34.0827 17.2578V23.8305C34.0825 23.8622 34.0742 23.8933 34.0584 23.9208C34.0426 23.9483 34.0199 23.9712 33.9926 23.9872C33.965 24.003 33.9338 24.0113 33.902 24.0113C33.8702 24.0113 33.839 24.003 33.8114 23.9872L32.7386 23.3689C32.6601 23.3237 32.571 23.2998 32.4803 23.2998C32.3897 23.2998 32.3006 23.3237 32.2221 23.3689L27.938 25.8412C27.8593 25.8867 27.7939 25.952 27.7484 26.0307C27.703 26.1094 27.679 26.1987 27.679 26.2896V31.2358C27.679 31.4205 27.7777 31.591 27.9375 31.6841L32.2216 34.158C32.3814 34.2506 32.5788 34.2506 32.7391 34.158L37.0242 31.6841C37.1028 31.6385 37.168 31.5731 37.2134 31.4945C37.2587 31.4158 37.2827 31.3266 37.2828 31.2358V18.9062C37.2828 18.7189 37.181 18.5459 37.0176 18.4543L34.4674 17.0318Z" fill="#404137"/>
<path d="M19.3902 23.2758C19.4688 23.2303 19.5579 23.2063 19.6487 23.2063C19.7395 23.2063 19.8287 23.2303 19.9073 23.2758L24.1913 25.7476C24.3511 25.8402 24.4499 26.0112 24.4499 26.1959V31.1436C24.4499 31.3284 24.3511 31.4994 24.1913 31.592L19.9078 34.0659C19.829 34.1111 19.7398 34.135 19.649 34.135C19.5582 34.135 19.4689 34.1111 19.3902 34.0659L15.1077 31.592C15.0291 31.5464 14.9639 31.481 14.9185 31.4023C14.8732 31.3237 14.8492 31.2345 14.8491 31.1436V26.1954C14.8491 26.0112 14.9479 25.8402 15.1077 25.7476L19.3902 23.2758Z" fill="#83CD29"/>
<path d="M11.5997 26.1547C11.5997 25.9685 11.502 25.7975 11.3412 25.7054L7.05865 23.2407C6.98673 23.199 6.9056 23.1757 6.82251 23.173H6.77824C6.69516 23.1758 6.61405 23.199 6.5421 23.2407L2.25904 25.7054C2.18025 25.751 2.11484 25.8165 2.06937 25.8954C2.0239 25.9742 1.99998 26.0637 2 26.1547L2.00916 32.791C2.00916 32.8836 2.05751 32.9697 2.13843 33.0144C2.17717 33.0379 2.22162 33.0504 2.26693 33.0504C2.31224 33.0504 2.35668 33.0379 2.39543 33.0144L4.94002 31.5569C5.10084 31.4612 5.19906 31.2928 5.19906 31.108V28.0077C5.19906 27.8225 5.29677 27.652 5.45708 27.5593L6.54108 26.9354C6.61943 26.8894 6.70874 26.8653 6.79961 26.8657C6.88816 26.8657 6.97875 26.8881 7.05763 26.9354L8.14061 27.5593C8.30092 27.652 8.39965 27.8225 8.39965 28.0077V31.108C8.39965 31.2928 8.49889 31.4622 8.65869 31.5569L11.2033 33.0144C11.2425 33.0369 11.287 33.0486 11.3321 33.0485C11.3773 33.0484 11.4217 33.0364 11.4608 33.0138C11.5 32.9912 11.5325 32.9588 11.5552 32.9197C11.5778 32.8806 11.5899 32.8362 11.5901 32.791L11.5997 26.1547Z" fill="#404137"/>
</svg>
