<svg width="61" height="50" viewBox="0 0 61 50" fill="none" xmlns="http://www.w3.org/2000/svg">
<path d="M56.1123 32.0305C55.9648 32.0305 55.8182 31.9918 55.6889 31.9165L54.3403 31.1185C54.1388 31.0061 54.237 30.9659 54.3036 30.943C54.5724 30.8493 54.6268 30.8274 54.9133 30.6656C54.9434 30.6488 54.9825 30.6549 55.0136 30.6732L56.0492 31.2885C56.0685 31.2988 56.09 31.3042 56.1118 31.3042C56.1337 31.3042 56.1552 31.2988 56.1744 31.2885L60.2137 28.9572C60.2327 28.9459 60.2485 28.9299 60.2594 28.9107C60.2703 28.8915 60.2759 28.8698 60.2758 28.8477V24.186C60.2758 24.1637 60.2701 24.1416 60.2591 24.1221C60.2482 24.1026 60.2323 24.0862 60.2132 24.0746L56.1754 21.7453C56.1564 21.7348 56.1349 21.7292 56.1131 21.7292C56.0913 21.7292 56.0699 21.7348 56.0508 21.7453L52.0135 24.0751C51.9944 24.0867 51.9785 24.1029 51.9674 24.1223C51.9562 24.1418 51.9502 24.1637 51.9499 24.186V28.8477C51.9499 28.8925 51.9748 28.9348 52.0135 28.9556L53.1199 29.5953C53.7204 29.8951 54.0884 29.5419 54.0884 29.1867V24.5835C54.0884 24.5189 54.1408 24.4675 54.2054 24.4675H54.7179C54.7815 24.4675 54.8345 24.5189 54.8345 24.5835V29.1867C54.8345 29.9877 54.3983 30.4473 53.6385 30.4473C53.4049 30.4473 53.2212 30.4473 52.7082 30.1948L51.6491 29.5852C51.5203 29.5101 51.4134 29.4025 51.3391 29.2732C51.2648 29.1439 51.2257 28.9974 51.2257 28.8483V24.1866C51.2257 23.8837 51.387 23.6013 51.6491 23.4507L55.6884 21.1163C55.8186 21.0454 55.9644 21.0083 56.1126 21.0083C56.2608 21.0083 56.4066 21.0454 56.5368 21.1163L60.5761 23.4507C60.8377 23.6018 61 23.8843 61 24.1866V28.8483C60.9997 28.9974 60.9605 29.1439 60.8861 29.2731C60.8118 29.4024 60.7049 29.51 60.5761 29.5852L56.5368 31.917C56.4079 31.9918 56.2614 32.031 56.1123 32.0305ZM57.3607 28.8187C55.5922 28.8187 55.2222 28.007 55.2222 27.3266C55.2224 27.2956 55.2348 27.266 55.2567 27.2441C55.2786 27.2223 55.3083 27.21 55.3393 27.21H55.8614C55.8894 27.2099 55.9164 27.2198 55.9377 27.2379C55.959 27.2561 55.9731 27.2812 55.9775 27.3088C56.0559 27.8406 56.2915 28.1088 57.3607 28.1088C58.2111 28.1088 58.5735 27.9164 58.5735 27.4645C58.5735 27.2039 58.4707 27.0111 57.1485 26.8813C56.0431 26.7719 55.3597 26.5281 55.3597 25.6431C55.3597 24.8283 56.0467 24.3418 57.1979 24.3418C58.492 24.3418 59.1323 24.7912 59.2132 25.755C59.2145 25.7713 59.2124 25.7876 59.2072 25.803C59.2019 25.8184 59.1936 25.8325 59.1827 25.8446C59.1716 25.8562 59.1583 25.8654 59.1437 25.8718C59.129 25.8782 59.1132 25.8816 59.0972 25.8818H58.5725C58.546 25.8818 58.5203 25.8728 58.4997 25.8562C58.479 25.8397 58.4647 25.8165 58.459 25.7907C58.3328 25.2309 58.0274 25.0522 57.1974 25.0522C56.2686 25.0522 56.1607 25.3764 56.1607 25.6181C56.1607 25.9118 56.2879 25.9973 57.5424 26.1632C58.7837 26.3276 59.3735 26.5596 59.3735 27.4324C59.374 28.3144 58.6401 28.8187 57.3607 28.8187" fill="#83CD29"/>
<path d="M47.7952 25.7612C47.9545 25.668 48.0527 25.4981 48.0527 25.3133V24.1153C48.0527 23.9311 47.955 23.7611 47.7952 23.668L43.5386 21.1967C43.4599 21.1509 43.3705 21.1267 43.2794 21.1265C43.1884 21.1263 43.0989 21.1502 43.02 21.1957L38.7369 23.6685C38.6584 23.714 38.5932 23.7793 38.5478 23.8579C38.5024 23.9364 38.4785 24.0256 38.4784 24.1163V29.061C38.4784 29.2467 38.5781 29.4188 38.74 29.5109L42.9961 31.9359C43.1528 32.026 43.3452 32.0265 43.5035 31.9389L46.0776 30.5078C46.1176 30.4856 46.1511 30.4531 46.1745 30.4137C46.1978 30.3743 46.2103 30.3294 46.2106 30.2835C46.211 30.2377 46.1991 30.1926 46.1762 30.1529C46.1534 30.1132 46.1204 30.0802 46.0806 30.0575L41.7711 27.5841C41.7316 27.5616 41.6987 27.529 41.6758 27.4897C41.6529 27.4504 41.6409 27.4057 41.6408 27.3602V25.81C41.6408 25.7174 41.6902 25.6324 41.7701 25.5866L43.1121 24.813C43.1513 24.7903 43.1958 24.7783 43.2411 24.7783C43.2864 24.7783 43.3309 24.7903 43.3701 24.813L44.7121 25.5866C44.7515 25.6091 44.7842 25.6417 44.807 25.6809C44.8298 25.7201 44.8418 25.7647 44.8419 25.81V27.0294C44.8416 27.075 44.8535 27.1198 44.8762 27.1594C44.8989 27.1989 44.9316 27.2317 44.9712 27.2545C45.0107 27.2772 45.0555 27.2891 45.1011 27.2889C45.1467 27.2887 45.1914 27.2764 45.2307 27.2533L47.7952 25.7612" fill="#404137"/>
<path d="M43.2158 25.5291C43.2309 25.5206 43.248 25.5162 43.2654 25.5162C43.2827 25.5162 43.2998 25.5206 43.315 25.5291L44.1369 26.0039C44.1674 26.0217 44.1863 26.0548 44.1863 26.0899V27.0391C44.1863 27.0747 44.1674 27.1072 44.1369 27.1251L43.315 27.5994C43.2999 27.6081 43.2828 27.6127 43.2654 27.6127C43.2479 27.6127 43.2308 27.6081 43.2158 27.5994L42.3944 27.1251C42.3792 27.1164 42.3666 27.1039 42.3578 27.0888C42.349 27.0737 42.3444 27.0565 42.3445 27.0391V26.0899C42.3445 26.0548 42.3633 26.0217 42.3944 26.0039L43.2158 25.5291Z" fill="#83CD29"/>
<path d="M32.07 27.5037C32.07 27.5495 32.0455 27.5922 32.0053 27.6157L30.5345 28.4635C30.5149 28.475 30.4926 28.4811 30.4699 28.4811C30.4472 28.4811 30.4249 28.475 30.4053 28.4635L28.9345 27.6157C28.9149 27.6043 28.8986 27.5879 28.8873 27.5683C28.8759 27.5487 28.8699 27.5264 28.8699 27.5037V25.8049C28.8699 25.7591 28.8948 25.7159 28.9345 25.6925L30.4053 24.8436C30.4249 24.8318 30.4473 24.8256 30.4702 24.8256C30.493 24.8256 30.5155 24.8318 30.5351 24.8436L32.0063 25.6925C32.0258 25.7041 32.042 25.7205 32.0532 25.7402C32.0645 25.7599 32.0704 25.7822 32.0705 25.8049V27.5037H32.07ZM32.4674 14.9253C32.428 14.9037 32.3836 14.8928 32.3387 14.8934C32.2938 14.8941 32.2498 14.9065 32.211 14.9292C32.1723 14.952 32.1401 14.9844 32.1176 15.0233C32.0951 15.0622 32.0831 15.1063 32.0827 15.1512V21.7239C32.0825 21.7556 32.0742 21.7867 32.0584 21.8142C32.0426 21.8417 32.0199 21.8646 31.9926 21.8807C31.965 21.8964 31.9338 21.9047 31.902 21.9047C31.8702 21.9047 31.839 21.8964 31.8114 21.8807L30.7386 21.2623C30.6601 21.2171 30.571 21.1933 30.4803 21.1933C30.3897 21.1933 30.3006 21.2171 30.2221 21.2623L25.938 23.7346C25.8593 23.7801 25.7939 23.8454 25.7484 23.9241C25.703 24.0028 25.679 24.0921 25.679 24.183V29.1292C25.679 29.3139 25.7777 29.4844 25.9375 29.5775L30.2216 32.0514C30.3814 32.144 30.5788 32.144 30.7391 32.0514L35.0242 29.5775C35.1028 29.5319 35.168 29.4666 35.2134 29.3879C35.2587 29.3092 35.2827 29.22 35.2828 29.1292V16.7996C35.2828 16.6123 35.181 16.4393 35.0176 16.3477L32.4674 14.9253Z" fill="#404137"/>
<path d="M17.3902 21.1692C17.4688 21.1237 17.5579 21.0997 17.6487 21.0997C17.7395 21.0997 17.8287 21.1237 17.9073 21.1692L22.1913 23.641C22.3511 23.7336 22.4499 23.9046 22.4499 24.0894V29.0371C22.4499 29.2218 22.3511 29.3928 22.1913 29.4854L17.9078 31.9593C17.829 32.0045 17.7398 32.0284 17.649 32.0284C17.5582 32.0284 17.4689 32.0045 17.3902 31.9593L13.1077 29.4854C13.0291 29.4398 12.9639 29.3744 12.9185 29.2958C12.8732 29.2171 12.8492 29.1279 12.8491 29.0371V24.0888C12.8491 23.9046 12.9479 23.7336 13.1077 23.641L17.3902 21.1692" fill="#83CD29"/>
<path d="M9.59973 24.0481C9.59973 23.8619 9.50202 23.6909 9.3412 23.5988L5.05865 21.1341C4.98673 21.0924 4.9056 21.0691 4.82251 21.0664H4.77824C4.69516 21.0692 4.61405 21.0924 4.5421 21.1341L0.25904 23.5988C0.180248 23.6444 0.114836 23.7099 0.0693695 23.7888C0.0239027 23.8677 -2.07098e-05 23.9571 1.34519e-08 24.0481L0.00916061 30.6844C0.00916061 30.7771 0.057508 30.8631 0.138426 30.9079C0.177172 30.9314 0.221616 30.9438 0.266928 30.9438C0.312239 30.9438 0.356684 30.9314 0.39543 30.9079L2.94002 29.4503C3.10084 29.3546 3.19906 29.1862 3.19906 29.0014V25.9011C3.19906 25.7159 3.29677 25.5454 3.45708 25.4528L4.54108 24.8288C4.61943 24.7828 4.70874 24.7587 4.79961 24.7591C4.88816 24.7591 4.97875 24.7815 5.05763 24.8288L6.14061 25.4528C6.30092 25.5454 6.39965 25.7159 6.39965 25.9011V29.0014C6.39965 29.1862 6.49889 29.3557 6.65869 29.4503L9.20328 30.9079C9.24252 30.9303 9.28695 30.942 9.33215 30.9419C9.37734 30.9418 9.42171 30.9299 9.46085 30.9072C9.49998 30.8846 9.5325 30.8522 9.55518 30.8131C9.57785 30.774 9.58988 30.7296 9.59006 30.6844L9.59973 24.0481" fill="#404137"/>
</svg>
