<svg width="50" height="50" viewBox="0 0 50 50" fill="none" xmlns="http://www.w3.org/2000/svg">
<path fill-rule="evenodd" clip-rule="evenodd" d="M49.6889 0.00415095C35.3147 -0.00020433 21.0048 0.000191608 6.63016 0.000191608C4.57421 0.000191608 2.48294 -0.00139214 0.426984 0.00454688C0.296825 0.00494281 0 0.0651249 0 0.0979874V50H50V0.0979874C50 0.0651249 49.8357 0.00415095 49.6889 0.00415095ZM44.6349 45.1165C31.6821 45.1015 18.7337 45.1047 5.78095 45.1047C5.15556 45.1047 5.15833 45.1035 5.15833 44.4605V5.73926C5.15873 5.103 5.15238 5.25939 5.78452 5.25939H44.5933C45.2433 5.25939 45.2381 5.1026 45.2381 5.77054V25.1068C45.2381 31.5685 45.2353 38.0301 45.2524 44.4914C45.254 44.9835 45.1377 45.1169 44.6349 45.1165ZM22.1508 15.4127C19.5048 14.7939 16.8413 15.0992 14.1806 15.3704C13.6159 15.4282 13.5079 15.6693 13.5095 16.1694C13.5266 22.1903 13.4921 28.2113 13.4921 34.2323V34.5586H17.0635V27.4868C19.0476 27.6352 20.8635 27.6 22.6385 26.9681C25.4833 25.9553 26.9052 23.7567 26.7516 20.5464C26.6274 17.9538 24.9952 16.0779 22.1508 15.4127V15.4127ZM21.3758 24.2595C20.1083 24.876 18.7607 24.8613 17.4056 24.6784C17.3 24.6641 17.1377 24.4761 17.1369 24.368C17.121 22.2573 17.125 20.1469 17.125 17.9784C18.3675 17.7852 19.5456 17.6909 20.721 17.9855C22.1786 18.351 23.0242 19.2996 23.1817 20.7242C23.3548 22.2897 22.6869 23.622 21.3758 24.2595V24.2595ZM34.5905 27.073C34.0075 26.7543 33.3683 26.5397 32.7627 26.2602C32.2032 26.0016 31.6385 25.747 31.1063 25.4382C30.7353 25.2232 30.5667 24.8475 30.5667 24.4044C30.5667 23.6553 31.0802 23.0515 31.9571 22.9798C32.6115 22.9264 33.2909 22.9937 33.9389 23.1145C34.4849 23.2158 35.0028 23.4704 35.5587 23.6668L36.2599 21.1847C34.9325 20.5417 33.5817 20.2998 32.1786 20.3492C30.9857 20.3908 29.8714 20.6941 28.8643 21.3783C26.9821 22.6568 26.0639 26.0531 28.8845 27.8779C29.6008 28.3416 30.4294 28.6322 31.2063 29.0028C31.6897 29.2336 32.194 29.43 32.6512 29.7044C33.2274 30.0504 33.4234 30.6139 33.3234 31.2644C33.2254 31.9038 32.7956 32.3089 32.198 32.4023C31.5313 32.5068 30.8226 32.5745 30.1671 32.4593C29.2389 32.2966 28.3421 31.9521 27.3996 31.6758C27.2306 32.3053 27.0698 33.0017 26.8504 33.6792C26.7302 34.0506 26.8008 34.2339 27.1659 34.3792C29.3948 35.2625 31.6635 35.4443 33.9444 34.6631C35.6492 34.0791 36.6885 32.8719 36.8238 31.0328C36.9556 29.2404 36.146 27.9243 34.5905 27.073V27.073Z" fill="#80B5E2"/>
</svg>
