<svg width="50" height="50" viewBox="0 0 50 50" fill="none" xmlns="http://www.w3.org/2000/svg">
<path d="M24.9998 37.339C38.8068 37.339 50 31.6664 50 24.6695C50 17.6726 38.8072 12 24.9998 12C11.1924 12 0 17.6726 0 24.6695C0 31.6664 11.1928 37.339 24.9998 37.339V37.339Z" fill="#6181B6"/>
<path d="M30.0643 28.7647L31.3041 22.3825C31.584 20.9417 31.3511 19.8669 30.6129 19.1885C29.8974 18.5314 28.6831 18.2123 26.8996 18.2123H24.7522L25.3666 15.0498C25.3779 14.991 25.3761 14.9304 25.3613 14.8723C25.3465 14.8143 25.3191 14.7602 25.281 14.7139C25.2429 14.6677 25.195 14.6304 25.1409 14.6048C25.0867 14.5791 25.0276 14.5657 24.9677 14.5656H22.0036C21.9092 14.5656 21.8178 14.5984 21.745 14.6584C21.6721 14.7184 21.6224 14.8019 21.6043 14.8945L20.2876 21.6704C20.1681 20.908 19.8724 20.2526 19.4005 19.7116C18.531 18.7166 17.1558 18.2119 15.313 18.2119H9.5671C9.47272 18.2117 9.38126 18.2445 9.30844 18.3046C9.23563 18.3646 9.18602 18.4482 9.16816 18.5408L6.50276 32.2557C6.49138 32.3145 6.49314 32.3751 6.50792 32.4332C6.5227 32.4912 6.55013 32.5453 6.58825 32.5916C6.62637 32.6378 6.67423 32.675 6.72842 32.7006C6.78261 32.7262 6.84178 32.7395 6.9017 32.7395H9.88923C9.98364 32.7396 10.0751 32.7068 10.148 32.6467C10.2209 32.5867 10.2706 32.5032 10.2886 32.4105L10.9333 29.0932H13.1575C14.3244 29.0932 15.3045 28.9669 16.0704 28.7173C16.8529 28.463 17.5731 28.0316 18.2084 27.4369C18.7077 26.9822 19.1337 26.4532 19.4714 25.8684L18.9389 28.6093C18.9272 28.6682 18.9288 28.7289 18.9435 28.7871C18.9582 28.8452 18.9856 28.8994 19.0238 28.9457C19.062 28.992 19.1099 29.0292 19.1642 29.0547C19.2185 29.0802 19.2778 29.0934 19.3378 29.0932H22.3019C22.3963 29.0932 22.4877 29.0603 22.5605 29.0003C22.6334 28.9403 22.6831 28.8569 22.7012 28.7642L24.1643 21.2357H26.1982C27.0648 21.2357 27.3186 21.408 27.3873 21.4823C27.4501 21.5501 27.5802 21.7886 27.4343 22.5404L26.255 28.6089C26.2433 28.6678 26.2449 28.7285 26.2596 28.7866C26.2743 28.8448 26.3017 28.899 26.3399 28.9453C26.378 28.9916 26.426 29.0288 26.4803 29.0543C26.5346 29.0798 26.5939 29.0929 26.6539 29.0928H29.6653C29.7596 29.0929 29.8509 29.0603 29.9237 29.0004C29.9965 28.9405 30.0462 28.8572 30.0643 28.7647ZM16.3221 23.491C16.1357 24.4476 15.7849 25.1303 15.2793 25.5198C14.7652 25.9154 13.943 26.1159 12.8358 26.1159H11.5114L12.4689 21.1887H14.1807C15.4385 21.1887 15.9454 21.4575 16.1485 21.6828C16.4309 21.996 16.4906 22.6211 16.3221 23.491V23.491ZM42.7397 19.7116C41.8702 18.7166 40.495 18.2119 38.6518 18.2119H32.9071C32.8127 18.2117 32.7212 18.2445 32.6483 18.3045C32.5754 18.3646 32.5257 18.4481 32.5078 18.5408L29.842 32.2557C29.8306 32.3145 29.8323 32.3751 29.8471 32.4332C29.8619 32.4912 29.8893 32.5453 29.9274 32.5916C29.9656 32.6378 30.0134 32.675 30.0676 32.7006C30.1218 32.7262 30.181 32.7395 30.2409 32.7395H33.2289C33.3232 32.7395 33.4146 32.7066 33.4873 32.6466C33.5601 32.5866 33.6098 32.5031 33.6278 32.4105L34.2729 29.0932H36.4967C37.6636 29.0932 38.6441 28.9669 39.4096 28.7173C40.1925 28.463 40.9123 28.0316 41.5476 27.4369C42.0771 26.95 42.5136 26.4039 42.8434 25.813C43.1805 25.202 43.4181 24.5412 43.5474 23.8554C43.8875 22.1086 43.6157 20.7138 42.7397 19.7116V19.7116ZM39.6413 23.491C39.4548 24.4476 39.1041 25.1303 38.5985 25.5198C38.0848 25.9154 37.2626 26.1159 36.1549 26.1159H34.8306L35.7884 21.1887H37.5002C38.758 21.1887 39.2649 21.4575 39.468 21.6828C39.7505 21.996 39.8098 22.6211 39.6413 23.491Z" fill="white"/>
<path d="M14.1812 20.7825C15.3162 20.7825 16.0731 20.992 16.4511 21.4114C16.8287 21.8304 16.9192 22.5498 16.7212 23.5691C16.5147 24.6307 16.117 25.3884 15.5274 25.8424C14.9377 26.2959 14.0404 26.5229 12.836 26.5229H11.0184L12.1337 20.783H14.1812V20.7825V20.7825ZM6.90186 32.3333H9.88939L10.5981 28.687H13.1572C14.2862 28.687 15.2151 28.5688 15.9442 28.3312C16.6734 28.0939 17.3365 27.6963 17.9329 27.1378C18.4169 26.6983 18.8274 26.1842 19.1489 25.615C19.4591 25.0603 19.6789 24.4485 19.809 23.7782C20.1252 22.1521 19.8867 20.8862 19.0939 19.9791C18.3012 19.072 17.0408 18.6185 15.3128 18.6185H9.56725L6.90186 32.3333V32.3333ZM22.0034 14.9717H24.9674L24.2587 18.6181H26.8994C28.5608 18.6181 29.7069 18.9082 30.3379 19.4872C30.9689 20.067 31.1575 21.0065 30.9054 22.3045L29.6655 28.687H26.654L27.8329 22.6185C27.9669 21.9281 27.9178 21.4571 27.6849 21.2058C27.4519 20.9553 26.9561 20.8295 26.1979 20.8295H23.8286L22.302 28.687H19.338L22.0034 14.9717V14.9717ZM37.5004 20.7825C38.6353 20.7825 39.3922 20.992 39.7698 21.4114C40.1483 21.8304 40.2379 22.5498 40.0403 23.5691C39.8338 24.6307 39.4358 25.3884 38.8461 25.8424C38.2564 26.2959 37.3596 26.5229 36.1547 26.5229H34.3375L35.4528 20.783H37.5004V20.7825V20.7825ZM30.2214 32.3333H33.209L33.9177 28.687H36.4764C37.6053 28.687 38.5342 28.5688 39.2634 28.3312C39.993 28.0939 40.656 27.6963 41.2521 27.1378C41.7363 26.6984 42.1469 26.1843 42.4685 25.615C42.7783 25.0603 42.9984 24.4485 43.1286 23.7782C43.4443 22.1521 43.2062 20.8862 42.4135 19.9791C41.6207 19.072 40.3603 18.6185 38.6319 18.6185H32.8868L30.2214 32.3333V32.3333Z" fill="#000004"/>
</svg>
