<svg width="50" height="50" viewBox="0 0 50 50" fill="none" xmlns="http://www.w3.org/2000/svg">
<path d="M44.7864 9.71971C41.7641 5.80605 37.6491 2.87657 32.9617 1.30175C28.2744 -0.273071 23.2253 -0.422479 18.4531 0.872419C13.6809 2.16732 9.3998 4.84835 6.15137 8.57646C2.90294 12.3046 0.833046 16.9123 0.203474 21.8168C-0.426097 26.7214 0.412934 31.7025 2.61445 36.1302C4.81597 40.5578 8.28109 44.2332 12.5716 46.6914C16.862 49.1497 21.7851 50.2803 26.7182 49.9404C31.6514 49.6005 36.3729 47.8054 40.2856 44.7819C51.2074 36.3414 53.223 20.6454 44.7856 9.71971H44.7864Z" fill="#FF6C37"/>
<path d="M33.4318 15.929L22.8905 26.5539L19.9116 23.4915C30.2865 13.1166 31.3279 14.0541 33.4326 15.929H33.4318Z" fill="white"/>
<path d="M22.8907 26.8446C22.7973 26.8423 22.7082 26.8052 22.6407 26.7407L19.6407 23.7407C19.5732 23.6708 19.5354 23.5774 19.5354 23.4802C19.5354 23.3829 19.5732 23.2895 19.6407 23.2196C29.8695 12.9908 31.2656 13.4697 33.682 15.6572C33.764 15.7228 33.8101 15.8228 33.807 15.9283C33.8226 16.0298 33.7835 16.1337 33.7031 16.1994L23.1618 26.7415C23.0875 26.8094 22.9914 26.8461 22.8907 26.8454V26.8446ZM20.4321 23.4907L22.8907 25.9493L32.8906 15.9494C32.5453 15.5167 32.0526 15.2264 31.5068 15.1342C30.961 15.0419 30.4003 15.1542 29.932 15.4494C28.1195 16.2619 25.2031 18.7407 20.4321 23.4907V23.4907Z" fill="#FF6C37"/>
<path d="M25.9116 29.4914L23.0366 26.5539L33.5779 16.1368C36.4115 18.9079 32.203 23.5329 25.9116 29.4906V29.4914Z" fill="white"/>
<path d="M25.9114 29.8664C25.8192 29.8591 25.7317 29.8227 25.6614 29.7625L22.724 26.8875C22.6799 26.7807 22.6799 26.6608 22.724 26.5539C22.6927 26.4664 22.6927 26.3703 22.724 26.2828L33.2653 15.7415C33.4176 15.5986 33.6543 15.5986 33.8067 15.7415C34.4981 16.3775 34.877 17.2821 34.8481 18.2204C34.8481 21.0329 31.6395 24.5743 26.1817 29.7414C26.1088 29.8136 26.0129 29.8578 25.9107 29.8664H25.9114ZM23.5779 26.5539L25.9317 28.907C30.0981 24.9696 34.0778 20.9071 34.0981 18.1571C34.1207 17.5742 33.928 17.0032 33.5567 16.5532L23.5779 26.5539Z" fill="#FF6C37"/>
<path d="M19.9943 23.554L22.0779 25.6376C22.0912 25.6493 22.1018 25.6637 22.1091 25.6799C22.1164 25.696 22.1202 25.7136 22.1202 25.7313C22.1202 25.749 22.1164 25.7666 22.1091 25.7827C22.1018 25.7989 22.0912 25.8133 22.0779 25.8251L17.6818 26.7625C17.4998 26.8016 17.3146 26.7141 17.2271 26.55C17.1396 26.386 17.1724 26.1829 17.3068 26.054L19.8693 23.5126C19.8693 23.5126 19.9529 23.5126 19.9943 23.554V23.554Z" fill="white"/>
<path d="M17.578 27.1789C17.4391 27.1772 17.303 27.1399 17.1827 27.0705C17.0623 27.0012 16.9617 26.9021 16.8905 26.7829C16.7265 26.4727 16.7851 26.0907 17.0366 25.8454L19.578 23.2829C19.6697 23.201 19.7883 23.1557 19.9112 23.1557C20.0342 23.1557 20.1528 23.201 20.2444 23.2829L22.328 25.3665C22.4514 25.4837 22.4999 25.661 22.453 25.8251C22.4061 25.9891 22.2686 26.1196 22.0991 26.1586L17.703 27.0961L17.578 27.1789ZM19.9116 24.0126L17.5577 26.3665L21.4538 25.5329L19.9116 24.0126Z" fill="#FF6C37"/>
<path d="M39.0364 10.0744C37.5286 8.61972 35.1599 8.55878 33.5787 9.93142C31.9974 11.3041 31.7271 13.6603 32.9584 15.3556C34.1896 17.0509 36.5107 17.5259 38.3075 16.4493L35.474 13.6158L39.0364 10.0744Z" fill="white"/>
<path d="M36.2239 17.4071C35.3576 17.396 34.5138 17.1303 33.7975 16.6429C33.0812 16.1556 32.5242 15.4682 32.1958 14.6665C31.5239 13.0275 31.8958 11.1463 33.1333 9.8869C33.9674 9.06813 35.0895 8.60942 36.2583 8.60942C37.4271 8.60942 38.5492 9.06813 39.3832 9.8869C39.4629 9.95409 39.5082 10.0533 39.5082 10.158C39.508 10.2095 39.4968 10.2604 39.4752 10.3071C39.4537 10.3539 39.4223 10.3955 39.3832 10.4291L36.0083 13.6166L38.5707 16.1376C38.6123 16.1773 38.6434 16.2265 38.6616 16.281C38.6797 16.3354 38.6842 16.3935 38.6747 16.4501C38.6685 16.5047 38.6504 16.5573 38.6216 16.6042C38.5929 16.651 38.5542 16.691 38.5082 16.7212C37.8198 17.1515 37.0285 17.389 36.2169 17.4087L36.2239 17.4071ZM36.2239 9.32362C34.7395 9.33144 33.4114 10.2244 32.8544 11.5892C32.2974 12.9541 32.6005 14.5251 33.6411 15.5736C34.7005 16.6384 36.2973 16.9447 37.6825 16.3447L35.2239 13.8861C35.1419 13.8205 35.0958 13.7205 35.0989 13.615C35.102 13.5173 35.1473 13.4259 35.2239 13.365L38.4739 10.0939C37.8278 9.59862 37.0379 9.32831 36.2239 9.32284V9.32362Z" fill="#FF6C37"/>
<path d="M39.0988 10.1369L35.5364 13.6783L38.3699 16.5118C38.6551 16.3481 38.9207 16.1523 39.1613 15.9283C40.7051 14.2876 40.677 11.7345 39.0988 10.1369Z" fill="white"/>
<path d="M38.3066 16.8243C38.2598 16.8269 38.2131 16.8189 38.1698 16.8009C38.1265 16.7829 38.0878 16.7554 38.0566 16.7204L35.223 13.8869C35.141 13.8212 35.0949 13.7212 35.098 13.6158C35.1012 13.5181 35.1465 13.4267 35.223 13.3658L38.7644 9.8869C38.7986 9.83533 38.8451 9.79303 38.8996 9.76377C38.9541 9.73451 39.015 9.71919 39.0769 9.71919C39.1388 9.71919 39.1997 9.73451 39.2543 9.76377C39.3088 9.79303 39.3552 9.83533 39.3894 9.8869C39.8052 10.2942 40.1354 10.7805 40.3609 11.317C40.5864 11.8536 40.7025 12.4298 40.7025 13.0119C40.7025 13.5939 40.5864 14.1701 40.3609 14.7067C40.1354 15.2433 39.8052 15.7295 39.3894 16.1368C39.1442 16.397 38.8636 16.6213 38.5558 16.8032C38.4784 16.8423 38.3888 16.8499 38.3058 16.8243H38.3066ZM36.0152 13.6166L38.3691 15.9704C38.531 15.857 38.6843 15.7316 38.8277 15.5954C39.5197 14.9054 39.9094 13.9688 39.9113 12.9916C39.9129 12.117 39.5941 11.2721 39.0152 10.6166L36.0152 13.6166Z" fill="#FF6C37"/>
<path d="M33.8691 16.3665C33.2832 15.8165 32.3714 15.8165 31.7855 16.3665L22.3489 25.7821L23.9114 27.3657L33.8902 18.6157C34.1988 18.3212 34.3714 17.9126 34.3667 17.4861C34.3621 17.0595 34.1824 16.654 33.8691 16.3658V16.3665Z" fill="white"/>
<path d="M23.8278 27.7414C23.7344 27.7391 23.6453 27.7021 23.5778 27.6375L21.9942 26.0539C21.9267 25.984 21.8889 25.8906 21.8889 25.7934C21.8889 25.6962 21.9267 25.6028 21.9942 25.5329L31.4316 16.1368C32.1801 15.39 33.3926 15.39 34.1402 16.1368C34.5152 16.5118 34.7183 17.0236 34.7027 17.5532C34.6808 18.0798 34.448 18.5751 34.0566 18.9282L24.0778 27.6781C24.0051 27.7297 23.9161 27.7516 23.8278 27.7407V27.7414ZM22.7239 25.7821L23.7653 26.8446L33.5566 18.3235C33.7988 18.1126 33.9433 17.811 33.9527 17.49C33.9621 17.1689 33.8355 16.8548 33.5988 16.6361C33.1433 16.1829 32.4082 16.1829 31.9527 16.6361L22.7239 25.7821Z" fill="#FF6C37"/>
<path d="M15.0365 36.5117C15.0099 36.5479 14.9955 36.5917 14.9955 36.6367C14.9955 36.6817 15.0099 36.7255 15.0365 36.7617L15.4529 38.5742C15.4889 38.7906 15.385 39.0062 15.1936 39.121C15.1008 39.1753 14.9931 39.1988 14.8861 39.1879C14.7791 39.1771 14.6783 39.1326 14.5983 39.0609L11.7444 36.3109L20.6404 27.3446H23.724L25.8075 29.4281C22.5573 32.2699 18.9333 34.6532 15.0365 36.5117V36.5117Z" fill="white"/>
<path d="M14.8489 39.5741C14.613 39.5695 14.3802 39.4726 14.2239 39.3031L11.495 36.5742C11.413 36.5085 11.3669 36.4085 11.37 36.3031C11.3731 36.2054 11.4185 36.114 11.495 36.0531L20.4528 27.0742C20.5029 27.0209 20.5685 26.9846 20.6403 26.9703H23.7441C23.825 26.9417 23.9133 26.9417 23.9941 26.9703L26.0777 29.0539C26.1582 29.1281 26.1972 29.2375 26.1816 29.3453C26.1831 29.3971 26.1726 29.4485 26.1509 29.4955C26.1292 29.5425 26.0969 29.5839 26.0566 29.6164L25.8902 29.7625C22.6269 32.483 19.0367 34.7855 15.2028 36.6164L15.5989 38.3038C15.6295 38.434 15.6307 38.5694 15.6023 38.7001C15.574 38.8308 15.5168 38.9535 15.435 39.0592C15.3531 39.165 15.2487 39.2512 15.1294 39.3115C15.01 39.3718 14.8787 39.4047 14.745 39.4077L14.8489 39.5741ZM12.3075 36.3031L14.7653 38.782C14.7882 38.8024 14.8178 38.8137 14.8485 38.8137C14.8792 38.8137 14.9088 38.8024 14.9317 38.782C14.947 38.7607 14.9553 38.7351 14.9553 38.7089C14.9553 38.6827 14.947 38.6571 14.9317 38.6359L14.5153 36.8234C14.4481 36.5554 14.5778 36.2765 14.8278 36.157C18.5586 34.3505 22.0563 32.0979 25.2441 29.4484L23.5355 27.7399H20.7442L12.3075 36.3031Z" fill="#FF6C37"/>
<path d="M9.59902 38.4492L11.6826 36.3656L14.8912 39.5742L9.7873 39.2202C9.60761 39.207 9.45527 39.0796 9.4123 38.9031C9.36933 38.7265 9.44511 38.5437 9.5998 38.4499L9.59902 38.4492Z" fill="white"/>
<path d="M14.9529 39.8867L9.86937 39.5328C9.56781 39.5046 9.30844 39.2984 9.20219 39.0226C9.09594 38.7468 9.16079 38.4195 9.36938 38.1992L11.453 36.1156C11.5229 36.0481 11.6163 36.0103 11.7135 36.0103C11.8107 36.0103 11.9041 36.0481 11.974 36.1156L15.1615 39.3031C15.2521 39.4281 15.2521 39.5953 15.1615 39.7195C15.1131 39.7976 15.0396 39.8562 14.9529 39.8859V39.8867ZM9.86937 38.7203L14.0357 38.9914L11.7444 36.8453L9.86937 38.7203Z" fill="#FF6C37"/>
<path d="M24.0154 27.5961L19.8069 28.2422L22.2444 25.8258L24.0154 27.5961Z" fill="white"/>
<path d="M19.8069 28.6367C19.6639 28.6406 19.5335 28.5586 19.4733 28.4281C19.429 28.3678 19.405 28.2948 19.405 28.2199C19.405 28.145 19.429 28.0721 19.4733 28.0117L21.8897 25.5743C22.042 25.4313 22.2788 25.4313 22.4311 25.5743L24.203 27.3446C24.2384 27.4007 24.2571 27.4657 24.2571 27.5321C24.2571 27.5984 24.2384 27.6634 24.203 27.7196C24.1856 27.788 24.1489 27.8499 24.0972 27.898C24.0455 27.9461 23.981 27.9783 23.9116 27.9907L19.7452 28.6367H19.8069ZM22.2444 26.3657L20.8905 27.7196L23.2241 27.3657L22.2444 26.3657Z" fill="#FF6C37"/>
<path d="M24.0153 27.5946L21.0779 27.9696C20.9993 27.9874 20.917 27.9794 20.8433 27.9469C20.7695 27.9143 20.7083 27.8588 20.6686 27.7886C20.6288 27.7185 20.6128 27.6374 20.6228 27.5574C20.6327 27.4774 20.6682 27.4028 20.724 27.3446L22.2451 25.8235L24.0153 27.5946Z" fill="white"/>
<path d="M20.9943 28.3664C20.717 28.3641 20.4631 28.2125 20.3279 27.9703C20.2484 27.8277 20.2175 27.6631 20.2401 27.5013C20.2627 27.3396 20.3374 27.1896 20.4529 27.0743L21.974 25.5532C22.1264 25.4102 22.3631 25.4102 22.5154 25.5532L24.2865 27.3243C24.3392 27.3742 24.3762 27.4383 24.3932 27.5088C24.4102 27.5794 24.4063 27.6533 24.3821 27.7217C24.3578 27.7901 24.3143 27.85 24.2567 27.8941C24.1991 27.9383 24.1299 27.9647 24.0576 27.9703L21.1412 28.3453L20.9943 28.3664ZM20.9943 27.5953L23.2029 27.3243L22.224 26.3454L20.974 27.5953H20.9943ZM39.1192 12.533C39.0799 12.4672 39.0179 12.4182 38.9449 12.3951C38.8719 12.3721 38.793 12.3767 38.7231 12.408C38.6886 12.4255 38.658 12.4497 38.633 12.4792C38.6081 12.5087 38.5893 12.5429 38.5778 12.5798C38.5544 12.6541 38.5622 12.7345 38.5981 12.8041C38.7442 13.1111 38.7036 13.4744 38.4942 13.7416C38.4395 13.7931 38.4161 13.8642 38.4161 13.9392C38.4168 14.0125 38.4447 14.0829 38.4942 14.1369C38.5477 14.158 38.6071 14.158 38.6606 14.1369C38.7091 14.1491 38.76 14.1477 38.8078 14.133C38.8556 14.1182 38.8985 14.0907 38.9317 14.0533C39.1032 13.8432 39.2119 13.589 39.2451 13.3198C39.2782 13.0507 39.2346 12.7776 39.1192 12.5322V12.533Z" fill="#FF6C37"/>
</svg>
