<svg width="53" height="50" viewBox="0 0 53 50" fill="none" xmlns="http://www.w3.org/2000/svg">
<path d="M27.4326 0.000384199C25.3931 0.0100454 23.4463 0.183464 21.7324 0.486826C16.6845 1.37855 15.7686 3.2451 15.7686 6.68787V11.2339H27.6968V12.7493H11.2916C7.82514 12.7493 4.78959 14.8327 3.8399 18.7977C2.74432 23.3409 2.69601 26.1764 3.8399 30.9206C4.68767 34.4522 6.71266 36.968 10.1796 36.968H14.2812V31.5181C14.2812 27.5807 17.6873 24.108 21.7329 24.108H33.6476C36.9643 24.108 39.6115 21.3768 39.6115 18.0465V6.68835C39.6115 3.45523 36.8841 1.02689 33.6476 0.487309C31.5975 0.146268 29.4716 -0.00879394 27.4326 0.000384199V0.000384199ZM20.9818 3.65667C22.2136 3.65667 23.2203 4.6793 23.2203 5.93719C23.2203 7.18977 22.2141 8.20274 20.9818 8.20274C19.7451 8.20274 18.7438 7.18977 18.7438 5.93719C18.7433 4.6793 19.7451 3.65667 20.9818 3.65667V3.65667Z" fill="url(#paint0_linear_4_21)"/>
<path d="M41.0989 12.7493V18.0465C41.0989 22.1526 37.617 25.6089 33.6472 25.6089H21.7325C18.469 25.6089 15.7687 28.4024 15.7687 31.6708V43.0299C15.7687 46.2621 18.5791 48.1639 21.7325 49.0909C25.5081 50.2005 29.1292 50.4014 33.6472 49.0909C36.6499 48.2209 39.6111 46.4713 39.6111 43.0299V38.4834H27.6969V36.9675H45.5759C49.0423 36.9675 50.335 34.5498 51.5407 30.9201C52.7861 27.1836 52.7324 23.5901 51.5407 18.7972C50.6838 15.3458 49.0477 12.7488 45.5759 12.7488H41.0989V12.7493ZM34.3974 41.5141C35.6345 41.5141 36.6359 42.5271 36.6359 43.7806C36.6359 45.0375 35.634 46.0602 34.3974 46.0602C33.1656 46.0602 32.1594 45.0375 32.1594 43.7806C32.1594 42.5271 33.1656 41.5141 34.3974 41.5141V41.5141Z" fill="url(#paint1_linear_4_21)"/>
<defs>
<linearGradient id="paint0_linear_4_21" x1="1.80422" y1="1.42185" x2="29.3163" y2="24.884" gradientUnits="userSpaceOnUse">
<stop stop-color="#5A9FD4"/>
<stop offset="1" stop-color="#306998"/>
</linearGradient>
<linearGradient id="paint1_linear_4_21" x1="39.6675" y1="39.4685" x2="29.8012" y2="25.6326" gradientUnits="userSpaceOnUse">
<stop stop-color="#FFD43B"/>
<stop offset="1" stop-color="#FFE873"/>
</linearGradient>
</defs>
</svg>
