<svg width="50" height="50" viewBox="0 0 50 50" fill="none" xmlns="http://www.w3.org/2000/svg">
<path d="M25.4961 22.0262C27.5643 22.0262 29.2409 20.3496 29.2409 18.2814C29.2409 16.2131 27.5643 14.5365 25.4961 14.5365C23.4279 14.5365 21.7512 16.2131 21.7512 18.2814C21.7512 20.3496 23.4279 22.0262 25.4961 22.0262Z" fill="#61DAFB"/>
<path d="M25.4961 32.0528C28.4356 34.9117 31.3348 36.603 33.6703 36.603C34.4354 36.603 35.1602 36.4419 35.7642 36.0795C37.8581 34.8715 38.6232 31.8514 37.8984 27.5428C37.7776 26.7777 37.6165 26.0127 37.4152 25.2073C38.2205 24.9657 38.9453 24.7241 39.6701 24.4825C43.7371 22.9121 45.9921 20.7377 45.9921 18.3619C45.9921 15.9458 43.7371 13.7714 39.6701 12.2413C38.9453 11.9594 38.2205 11.7178 37.4152 11.5164C37.6165 10.7111 37.7776 9.94602 37.8984 9.18094C38.5829 4.79181 37.8178 1.73149 35.7239 0.523475C35.1199 0.161069 34.3951 0 33.63 0C31.3348 0 28.3953 1.69123 25.4558 4.5502C22.5565 1.69123 19.6573 0 17.3218 0C16.5567 0 15.8319 0.161069 15.2279 0.523475C13.134 1.73149 12.3689 4.75154 13.0937 9.06014C13.2145 9.82522 13.3756 10.5903 13.5769 11.3956C12.7716 11.6372 12.0468 11.8789 11.322 12.1205C7.25497 13.6909 5 15.8653 5 18.2411C5 20.6571 7.25497 22.8316 11.322 24.3617C12.0468 24.6436 12.7716 24.8852 13.5769 25.0865C13.3756 25.8919 13.2145 26.6569 13.0937 27.422C12.4092 31.7306 13.1743 34.7909 15.2279 35.9587C15.8319 36.3211 16.5567 36.4822 17.3218 36.4822C19.6573 36.5627 22.5565 34.8715 25.4961 32.0528ZM23.2411 26.6167C23.9659 26.6569 24.731 26.6569 25.4961 26.6569C26.2611 26.6569 27.0262 26.6569 27.751 26.6167C27.0262 27.5831 26.2611 28.469 25.4961 29.3146C24.731 28.469 23.9659 27.5831 23.2411 26.6167V26.6167ZM18.2479 22.4691C18.6506 23.1537 19.013 23.798 19.456 24.4422C18.2077 24.2812 17.0399 24.0798 15.9124 23.8382C16.2748 22.751 16.6775 21.6235 17.1607 20.4961C17.4829 21.1403 17.8453 21.8249 18.2479 22.4691V22.4691ZM15.9124 12.7647C17.0399 12.5231 18.2077 12.3218 19.456 12.1607C19.0533 12.805 18.6506 13.4493 18.2479 14.1338C17.8453 14.8184 17.4829 15.4626 17.1607 16.1472C16.6372 14.9794 16.2346 13.8519 15.9124 12.7647V12.7647ZM18.1271 18.2813C18.6506 17.1941 19.2144 16.1069 19.8586 15.0197C20.4626 13.9728 21.1472 12.9258 21.8317 11.8789C23.0397 11.7983 24.2478 11.758 25.4961 11.758C26.7846 11.758 27.9926 11.7983 29.1604 11.8789C29.8852 12.9258 30.5295 13.9728 31.1335 15.0197C31.7777 16.1069 32.3415 17.1941 32.865 18.2813C32.3415 19.3686 31.7777 20.4558 31.1335 21.543C30.5295 22.5899 29.8449 23.6369 29.1604 24.6838C27.9524 24.7644 26.7443 24.8047 25.4961 24.8047C24.2075 24.8047 22.9995 24.7644 21.8317 24.6838C21.1069 23.6369 20.4626 22.5899 19.8586 21.543C19.2144 20.4558 18.6506 19.3686 18.1271 18.2813V18.2813ZM33.8716 16.1069L32.7844 14.0936C32.3818 13.409 32.0194 12.7647 31.5764 12.1205C32.8247 12.2815 33.9925 12.4829 35.1199 12.7245C34.7575 13.8519 34.3549 14.9794 33.8716 16.1069ZM33.8716 20.4558C34.3549 21.5833 34.7575 22.7108 35.1199 23.798C33.9925 24.0396 32.8247 24.2409 31.5764 24.402C31.9791 23.7577 32.3818 23.1134 32.7844 22.4289C33.1468 21.8249 33.5092 21.1403 33.8716 20.4558ZM34.7978 34.4285C34.4757 34.6299 34.073 34.7104 33.63 34.7104C31.6569 34.7104 29.2006 33.0997 26.7846 30.6837C27.9524 29.4354 29.0798 28.026 30.2073 26.4556C32.0999 26.2945 33.9119 26.0127 35.6031 25.61C35.8045 26.3348 35.9253 27.0596 36.0461 27.7844C36.6098 31.2071 36.1669 33.6635 34.7978 34.4285V34.4285ZM36.8917 13.2077C41.4016 14.4962 44.0995 16.4693 44.0995 18.2813C44.0995 19.8518 42.2472 21.4222 38.9856 22.6705C38.3413 22.9121 37.6165 23.1537 36.8917 23.355C36.3682 21.7041 35.7239 20.0128 34.9186 18.2813C35.7239 16.5499 36.4085 14.8586 36.8917 13.2077ZM33.6703 1.8523C34.1133 1.8523 34.4757 1.93283 34.8381 2.13417C36.1669 2.89924 36.6501 5.31528 36.0864 8.77827C35.9655 9.46281 35.8045 10.1876 35.6434 10.9527C33.9522 10.5903 32.1402 10.3084 30.2476 10.1071C29.1604 8.53667 27.9926 7.12731 26.8249 5.87902C29.2409 3.50325 31.6972 1.8523 33.6703 1.8523V1.8523ZM27.751 9.94602C27.0262 9.90575 26.2611 9.90575 25.4961 9.90575C24.731 9.90575 23.9659 9.90575 23.2411 9.94602C23.9659 8.9796 24.731 8.09372 25.4961 7.24811C26.2611 8.09372 27.0262 9.01987 27.751 9.94602ZM16.1943 2.13417C16.5164 1.93283 16.9191 1.8523 17.3621 1.8523C19.3352 1.8523 21.7915 3.46299 24.2075 5.87902C23.0397 7.12731 21.9123 8.53667 20.7848 10.1071C18.8922 10.2682 17.0802 10.55 15.389 10.9527C15.1876 10.2279 15.0668 9.50308 14.946 8.77827C14.3823 5.35555 14.8252 2.93951 16.1943 2.13417V2.13417ZM14.1004 23.355C9.59047 22.0665 6.89256 20.0934 6.89256 18.2813C6.89256 16.7109 8.74486 15.1405 12.0065 13.8922C12.6508 13.6506 13.3756 13.409 14.1004 13.2077C14.6239 14.8586 15.2682 16.5499 16.0735 18.2813C15.2682 20.0128 14.5836 21.7443 14.1004 23.355V23.355ZM14.946 27.7844C15.0668 27.0999 15.2279 26.3751 15.389 25.61C17.0802 25.9724 18.8922 26.2543 20.7848 26.4556C21.872 28.026 23.0397 29.4354 24.2075 30.6837C21.7915 33.0594 19.3352 34.7104 17.3621 34.7104C16.9191 34.7104 16.5567 34.6299 16.1943 34.4285C14.8252 33.6635 14.3823 31.2071 14.946 27.7844V27.7844ZM13.2548 44.3746C14.1407 43.2873 14.1809 42.0793 13.6977 40.8713C13.2145 39.6633 12.2078 39.0995 10.9596 39.0593C9.46967 39.019 7.93951 39.0593 6.44962 39.0593H6.16775V49.4885H7.37577V45.5423H9.26833C9.50994 45.5423 9.71127 45.6228 9.83207 45.8242L12.2481 49.569C12.2884 49.6496 12.4092 49.7704 12.4897 49.7704H14.0601C13.0937 48.2805 12.1676 46.8711 11.2012 45.4215C12.0468 45.3007 12.7716 45.0188 13.2548 44.3746V44.3746ZM7.37577 44.294V40.3076H7.81871C8.74486 40.3076 9.71127 40.2673 10.6374 40.3478C11.7246 40.3881 12.4897 41.2337 12.4897 42.3209C12.4897 43.4081 11.6038 44.2538 10.5166 44.294C9.5502 44.3343 8.58379 44.294 7.37577 44.294V44.294ZM22.9592 44.8175C22.3149 41.9988 19.7378 41.274 17.7647 42.1599C16.2346 42.8444 15.55 44.1732 15.5098 45.8242C15.4695 47.0725 15.8319 48.1999 16.7983 49.0456C17.8855 50.012 19.2144 50.1328 20.5834 49.8912C21.3485 49.7301 22.0331 49.3677 22.5565 48.804C22.3552 48.5221 22.1539 48.2402 21.9525 47.9986C20.825 48.965 19.5768 49.2872 18.2077 48.6429C17.3218 48.1999 16.8789 47.1127 16.7983 46.3074H23.0397V45.7839C23.08 45.4215 23.0397 45.0994 22.9592 44.8175V44.8175ZM16.8789 45.4618C16.758 44.2538 17.9661 42.9652 19.2949 42.9652C20.825 42.9249 21.7915 43.8511 21.8317 45.4618H16.8789ZM29.2409 41.9585C28.6369 41.8377 27.9926 41.7974 27.3886 41.8377C26.4222 41.9182 25.5766 42.3612 24.892 43.086C25.0934 43.3679 25.2544 43.6497 25.4961 43.9719C25.5766 43.8913 25.6571 43.8108 25.7377 43.7705C26.3819 43.1665 27.147 42.8444 28.0732 42.9249C28.798 42.9652 29.4825 43.2068 29.6839 43.9316C29.8449 44.4954 29.8047 45.0994 29.8449 45.7034C29.7241 45.7034 29.6839 45.6631 29.6436 45.6228C28.6772 44.8175 27.59 44.6564 26.4222 44.9383C25.335 45.2202 24.6504 46.0658 24.5699 47.153C24.4894 48.4013 25.0531 49.3274 26.1403 49.7704C26.8249 50.0522 27.59 50.0522 28.3148 49.8912C28.8785 49.7704 29.1201 49.4482 29.9255 49.0053V49.5288H31.0529C31.0529 47.9181 31.0932 45.945 31.0529 44.0927C31.0529 42.9249 30.3684 42.2001 29.2409 41.9585ZM29.8047 47.0322C29.7644 47.153 29.8047 47.2738 29.8047 47.3946C29.8047 48.2402 29.6033 48.5221 28.798 48.8442C28.2342 49.0456 27.6302 49.1261 27.0262 48.9248C26.3417 48.7234 25.8585 48.1194 25.8585 47.4349C25.8182 46.7503 26.2611 46.0658 26.9457 45.8644C27.8718 45.5423 28.7174 45.7436 29.4825 46.3074C29.7241 46.5087 29.8852 46.7101 29.8047 47.0322V47.0322ZM36.0864 43.0457C37.1333 42.7236 38.0997 42.9249 38.8245 43.8108L38.9453 43.8913C39.2272 43.6497 39.4688 43.4081 39.7909 43.1263C39.6701 43.0055 39.6299 42.9249 39.5493 42.8041C38.3816 41.5558 36.0864 41.3948 34.677 42.4015C32.7039 43.8511 32.7442 46.6698 33.7106 48.1597C34.6367 49.569 35.9655 50.0522 37.536 49.8509C38.4621 49.7301 39.2272 49.2872 39.8312 48.5221C39.5493 48.2805 39.2675 48.0389 38.9856 47.757C38.9051 47.8375 38.8648 47.8778 38.8245 47.9583C37.7373 49.1664 35.9253 49.0456 34.9589 47.757C34.3951 46.9919 34.2743 46.106 34.4354 45.2202C34.5159 44.2135 35.0394 43.4081 36.0864 43.0457ZM44.4619 48.5221C44.3814 48.5624 44.3411 48.6026 44.3411 48.6026C44.019 48.8442 43.6969 48.8845 43.3345 48.7637C42.9721 48.6026 42.9318 48.2805 42.8915 47.9583V43.3679C42.8915 43.2873 42.8915 43.4484 42.9318 43.0457H44.4619V41.8377H42.8513V39.8243H41.6432V41.9988H40.5963C40.5158 41.9988 40.3949 42.0793 40.3949 42.1599C40.3547 42.4417 40.3949 42.6431 40.3949 43.0457H41.6835V48.1999C41.6835 48.8442 41.8446 49.408 42.4083 49.7301C43.0123 50.0925 44.1801 50.012 44.7035 49.569C44.7841 49.5288 44.8244 49.3677 44.8244 49.3274C44.7036 49.0858 44.5827 48.804 44.4619 48.5221V48.5221Z" fill="#61DAFB"/>
</svg>
