<svg width="50" height="50" viewBox="0 0 50 50" fill="none" xmlns="http://www.w3.org/2000/svg">
<path fill-rule="evenodd" clip-rule="evenodd" d="M10.9081 4.47604L24.998 3L39.0879 4.47604L49.997 18.987L24.999 47.8334L0 18.987L10.9081 4.47604Z" fill="#FDB300"/>
<path fill-rule="evenodd" clip-rule="evenodd" d="M10.1262 19.1615L24.999 47.8343L0 19.1615H10.1262Z" fill="#EA6C00"/>
<path fill-rule="evenodd" clip-rule="evenodd" d="M39.8738 19.1615L25 47.8343L50 19.1615H39.8738Z" fill="#EA6C00"/>
<path fill-rule="evenodd" clip-rule="evenodd" d="M9.89941 19.1615H39.5859L24.7426 47.8343L9.89941 19.1615Z" fill="#FDAD00"/>
<path fill-rule="evenodd" clip-rule="evenodd" d="M24.4922 3L10.6665 4.49182L9.89941 19.1605L24.4922 3Z" fill="#FDD231"/>
<path fill-rule="evenodd" clip-rule="evenodd" d="M24.9851 3L38.8108 4.49182L39.5779 19.1605L24.9851 3Z" fill="#FDD231"/>
<path fill-rule="evenodd" clip-rule="evenodd" d="M50 19.1615L39.0623 4.5638L39.8472 19.1615H50Z" fill="#FDAD00"/>
<path fill-rule="evenodd" clip-rule="evenodd" d="M0.000488281 19.1616L10.9372 4.56389L10.1523 19.1616H0.000488281Z" fill="#FDAD00"/>
<path fill-rule="evenodd" clip-rule="evenodd" d="M24.7431 3.00008L9.8999 19.1606H39.5863L24.7431 3.00008Z" fill="#FEEEB7"/>
</svg>
